<svg xmlns="http://www.w3.org/2000/svg" viewBox="0 0 500 500"><g id="freepik--background-complete--inject-31"><rect x="416.78" y="398.49" width="33.12" height="0.25" style="fill:#ebebeb"></rect><rect x="322.53" y="401.21" width="8.69" height="0.25" style="fill:#ebebeb"></rect><rect x="396.59" y="389.21" width="19.19" height="0.25" style="fill:#ebebeb"></rect><rect x="52.46" y="390.89" width="43.19" height="0.25" style="fill:#ebebeb"></rect><rect x="104.56" y="390.89" width="6.33" height="0.25" style="fill:#ebebeb"></rect><rect x="131.47" y="395.11" width="93.68" height="0.25" style="fill:#ebebeb"></rect><path d="M237,337.8H43.92a5.71,5.71,0,0,1-5.71-5.71V60.66A5.71,5.71,0,0,1,43.92,55H237a5.71,5.71,0,0,1,5.71,5.71V332.09A5.71,5.71,0,0,1,237,337.8ZM43.92,55.2a5.47,5.47,0,0,0-5.46,5.46V332.09a5.47,5.47,0,0,0,5.46,5.46H237a5.47,5.47,0,0,0,5.46-5.46V60.66A5.47,5.47,0,0,0,237,55.2Z" style="fill:#ebebeb"></path><path d="M453.31,337.8H260.21a5.72,5.72,0,0,1-5.71-5.71V60.66A5.72,5.72,0,0,1,260.21,55h193.1A5.71,5.71,0,0,1,459,60.66V332.09A5.71,5.71,0,0,1,453.31,337.8ZM260.21,55.2a5.47,5.47,0,0,0-5.46,5.46V332.09a5.47,5.47,0,0,0,5.46,5.46h193.1a5.47,5.47,0,0,0,5.46-5.46V60.66a5.47,5.47,0,0,0-5.46-5.46Z" style="fill:#ebebeb"></path><rect y="382.4" width="500" height="0.25" style="fill:#ebebeb"></rect><rect x="362.95" y="314.87" width="80.25" height="67.35" style="fill:#f0f0f0"></rect><rect x="427.79" y="323.27" width="10.27" height="10.27" transform="translate(865.85 656.81) rotate(180)" style="fill:#fafafa"></rect><rect x="407.89" y="323.27" width="10.27" height="10.27" transform="translate(826.05 656.81) rotate(180)" style="fill:#fafafa"></rect><rect x="387.99" y="323.27" width="10.27" height="10.27" transform="translate(786.25 656.81) rotate(180)" style="fill:#fafafa"></rect><rect x="368.09" y="323.27" width="10.27" height="10.27" transform="translate(746.45 656.81) rotate(180)" style="fill:#fafafa"></rect><rect x="427.79" y="341.93" width="10.27" height="10.27" transform="translate(865.85 694.14) rotate(180)" style="fill:#fafafa"></rect><rect x="407.89" y="341.93" width="10.27" height="10.27" transform="translate(826.05 694.14) rotate(180)" style="fill:#fafafa"></rect><rect x="387.99" y="341.93" width="10.27" height="10.27" transform="translate(786.25 694.14) rotate(180)" style="fill:#fafafa"></rect><rect x="368.09" y="341.93" width="10.27" height="10.27" transform="translate(746.45 694.14) rotate(180)" style="fill:#fafafa"></rect><rect x="427.79" y="360.6" width="10.27" height="10.27" transform="translate(865.85 731.48) rotate(180)" style="fill:#fafafa"></rect><rect x="407.89" y="360.6" width="10.27" height="10.27" transform="translate(826.05 731.48) rotate(180)" style="fill:#fafafa"></rect><rect x="387.99" y="360.6" width="10.27" height="10.27" transform="translate(786.25 731.48) rotate(180)" style="fill:#fafafa"></rect><rect x="368.09" y="360.6" width="10.27" height="10.27" transform="translate(746.45 731.48) rotate(180)" style="fill:#fafafa"></rect><rect x="368.56" y="184.01" width="25.24" height="2.57" transform="translate(566.48 -195.88) rotate(90)" style="fill:#ebebeb"></rect><rect x="426.71" y="184.01" width="25.24" height="2.57" transform="translate(624.63 -254.03) rotate(90)" style="fill:#ebebeb"></rect><rect x="397.64" y="184.01" width="25.24" height="2.57" transform="translate(595.56 -224.96) rotate(90)" style="fill:#ebebeb"></rect><rect x="377.31" y="195.35" width="65.89" height="2.57" style="fill:#f5f5f5"></rect><rect x="377.31" y="171.39" width="65.89" height="2.57" style="fill:#f5f5f5"></rect><rect x="368.56" y="160.06" width="25.24" height="2.57" transform="translate(542.52 -219.83) rotate(90)" style="fill:#ebebeb"></rect><rect x="426.71" y="160.06" width="25.24" height="2.57" transform="translate(600.68 -277.99) rotate(90)" style="fill:#ebebeb"></rect><rect x="397.64" y="160.06" width="25.24" height="2.57" transform="translate(571.6 -248.91) rotate(90)" style="fill:#ebebeb"></rect><rect x="377.31" y="147.44" width="65.89" height="2.57" style="fill:#f5f5f5"></rect><rect x="362.95" y="197.72" width="80.25" height="117.15" style="fill:#fafafa"></rect><rect x="407.89" y="202.86" width="30.18" height="28.94" style="fill:#f0f0f0"></rect><rect x="368.09" y="202.86" width="30.18" height="28.94" style="fill:#f0f0f0"></rect><rect x="407.89" y="240.2" width="30.18" height="28.94" style="fill:#f0f0f0"></rect><rect x="368.09" y="240.2" width="30.18" height="28.94" style="fill:#f0f0f0"></rect><rect x="407.89" y="277.54" width="30.18" height="28.94" style="fill:#f0f0f0"></rect><rect x="368.09" y="277.54" width="30.18" height="28.94" style="fill:#f0f0f0"></rect><rect x="196.52" y="250.21" width="75.99" height="131.4" style="fill:#ebebeb"></rect><polygon points="257.92 231.84 257.92 250.21 251.92 250.21 217.1 250.21 211.11 250.21 211.11 231.84 257.92 231.84" style="fill:#ebebeb"></polygon><rect x="257.92" y="255.07" width="9.73" height="9.73" transform="translate(525.56 519.87) rotate(180)" style="fill:#fafafa"></rect><rect x="239.07" y="255.07" width="9.73" height="9.73" transform="translate(487.87 519.87) rotate(180)" style="fill:#fafafa"></rect><rect x="220.23" y="255.07" width="9.73" height="9.73" transform="translate(450.18 519.87) rotate(180)" style="fill:#fafafa"></rect><rect x="201.38" y="255.07" width="9.73" height="9.73" transform="translate(412.5 519.87) rotate(180)" style="fill:#fafafa"></rect><rect x="257.92" y="272.75" width="9.73" height="9.73" transform="translate(525.56 555.22) rotate(180)" style="fill:#fafafa"></rect><rect x="239.07" y="272.75" width="9.73" height="9.73" transform="translate(487.87 555.22) rotate(180)" style="fill:#fafafa"></rect><rect x="220.23" y="272.75" width="9.73" height="9.73" transform="translate(450.18 555.22) rotate(180)" style="fill:#fafafa"></rect><rect x="201.38" y="272.75" width="9.73" height="9.73" transform="translate(412.5 555.22) rotate(180)" style="fill:#fafafa"></rect><rect x="257.92" y="290.42" width="9.73" height="9.73" transform="translate(525.56 590.58) rotate(180)" style="fill:#fafafa"></rect><rect x="239.07" y="290.42" width="9.73" height="9.73" transform="translate(487.87 590.58) rotate(180)" style="fill:#fafafa"></rect><rect x="220.23" y="290.42" width="9.73" height="9.73" transform="translate(450.18 590.58) rotate(180)" style="fill:#fafafa"></rect><rect x="239.07" y="239.79" width="9.73" height="9.73" transform="translate(487.87 489.31) rotate(180)" style="fill:#fafafa"></rect><rect x="220.23" y="239.79" width="9.73" height="9.73" transform="translate(450.18 489.31) rotate(180)" style="fill:#fafafa"></rect><rect x="201.38" y="290.42" width="9.73" height="9.73" transform="translate(412.5 590.58) rotate(180)" style="fill:#fafafa"></rect><rect x="257.92" y="308.1" width="9.73" height="9.73" transform="translate(525.56 625.93) rotate(180)" style="fill:#fafafa"></rect><rect x="239.07" y="308.1" width="9.73" height="9.73" transform="translate(487.87 625.93) rotate(180)" style="fill:#fafafa"></rect><rect x="220.23" y="308.1" width="9.73" height="9.73" transform="translate(450.18 625.93) rotate(180)" style="fill:#fafafa"></rect><rect x="201.38" y="308.1" width="9.73" height="9.73" transform="translate(412.5 625.93) rotate(180)" style="fill:#fafafa"></rect><rect x="257.92" y="325.78" width="9.73" height="9.73" transform="translate(525.56 661.28) rotate(180)" style="fill:#fafafa"></rect><rect x="239.07" y="325.78" width="9.73" height="9.73" transform="translate(487.87 661.28) rotate(180)" style="fill:#fafafa"></rect><rect x="220.23" y="325.78" width="9.73" height="9.73" transform="translate(450.18 661.28) rotate(180)" style="fill:#fafafa"></rect><rect x="201.38" y="325.78" width="9.73" height="9.73" transform="translate(412.5 661.28) rotate(180)" style="fill:#fafafa"></rect><rect x="257.92" y="343.45" width="9.73" height="9.73" transform="translate(525.56 696.64) rotate(180)" style="fill:#fafafa"></rect><rect x="239.07" y="343.45" width="9.73" height="9.73" transform="translate(487.87 696.64) rotate(180)" style="fill:#fafafa"></rect><rect x="220.23" y="343.45" width="9.73" height="9.73" transform="translate(450.18 696.64) rotate(180)" style="fill:#fafafa"></rect><rect x="201.38" y="343.45" width="9.73" height="9.73" transform="translate(412.5 696.64) rotate(180)" style="fill:#fafafa"></rect><rect x="257.92" y="361.13" width="9.73" height="9.73" transform="translate(525.56 731.99) rotate(180)" style="fill:#fafafa"></rect><rect x="239.07" y="361.13" width="9.73" height="9.73" transform="translate(487.87 731.99) rotate(180)" style="fill:#fafafa"></rect><rect x="220.23" y="361.13" width="9.73" height="9.73" transform="translate(450.18 731.99) rotate(180)" style="fill:#fafafa"></rect><rect x="201.38" y="361.13" width="9.73" height="9.73" transform="translate(412.5 731.99) rotate(180)" style="fill:#fafafa"></rect><rect x="194.95" y="248.32" width="79.13" height="1.98" style="fill:#f5f5f5"></rect><rect x="202.38" y="221.12" width="19.45" height="1.98" transform="translate(434.22 10.01) rotate(90)" style="fill:#ebebeb"></rect><rect x="247.2" y="221.12" width="19.45" height="1.98" transform="translate(479.04 -34.81) rotate(90)" style="fill:#ebebeb"></rect><rect x="224.79" y="221.12" width="19.45" height="1.98" transform="translate(456.63 -12.4) rotate(90)" style="fill:#ebebeb"></rect><rect x="209.12" y="229.86" width="50.78" height="1.98" style="fill:#f5f5f5"></rect><rect x="209.12" y="211.4" width="50.78" height="1.98" style="fill:#f5f5f5"></rect><rect x="202.38" y="202.66" width="19.45" height="1.98" transform="translate(415.76 -8.45) rotate(90)" style="fill:#ebebeb"></rect><rect x="247.2" y="202.66" width="19.45" height="1.98" transform="translate(460.58 -53.27) rotate(90)" style="fill:#ebebeb"></rect><rect x="224.79" y="202.66" width="19.45" height="1.98" transform="translate(438.17 -30.86) rotate(90)" style="fill:#ebebeb"></rect><rect x="209.12" y="192.94" width="50.78" height="1.98" style="fill:#f5f5f5"></rect><rect x="202.38" y="184.2" width="19.45" height="1.98" transform="translate(397.3 -26.91) rotate(90)" style="fill:#ebebeb"></rect><rect x="247.2" y="184.2" width="19.45" height="1.98" transform="translate(442.12 -71.73) rotate(90)" style="fill:#ebebeb"></rect><rect x="224.79" y="184.2" width="19.45" height="1.98" transform="translate(419.71 -49.32) rotate(90)" style="fill:#ebebeb"></rect><rect x="209.12" y="174.47" width="50.78" height="1.98" style="fill:#f5f5f5"></rect><rect x="202.38" y="165.74" width="19.45" height="1.98" transform="translate(378.84 -45.37) rotate(90)" style="fill:#ebebeb"></rect><rect x="247.2" y="165.74" width="19.45" height="1.98" transform="translate(423.65 -90.19) rotate(90)" style="fill:#ebebeb"></rect><rect x="224.79" y="165.74" width="19.45" height="1.98" transform="translate(401.25 -67.78) rotate(90)" style="fill:#ebebeb"></rect><rect x="209.12" y="156.01" width="50.78" height="1.98" style="fill:#f5f5f5"></rect><rect x="285.24" y="225.41" width="90.33" height="156.2" style="fill:#ebebeb"></rect><polygon points="358.23 203.58 358.23 225.4 351.1 225.4 309.71 225.4 302.59 225.4 302.59 203.58 358.23 203.58" style="fill:#ebebeb"></polygon><rect x="358.23" y="231.19" width="11.57" height="11.56" transform="translate(728.02 473.94) rotate(180)" style="fill:#fafafa"></rect><rect x="335.82" y="231.19" width="11.57" height="11.56" transform="translate(683.21 473.94) rotate(180)" style="fill:#fafafa"></rect><rect x="313.42" y="231.19" width="11.56" height="11.56" transform="translate(638.41 473.94) rotate(180)" style="fill:#fafafa"></rect><rect x="291.02" y="231.19" width="11.56" height="11.56" transform="translate(593.61 473.94) rotate(180)" style="fill:#fafafa"></rect><rect x="358.23" y="252.2" width="11.57" height="11.57" transform="translate(728.02 515.97) rotate(180)" style="fill:#fafafa"></rect><rect x="335.82" y="252.2" width="11.57" height="11.57" transform="translate(683.21 515.97) rotate(180)" style="fill:#fafafa"></rect><rect x="313.42" y="252.2" width="11.56" height="11.57" transform="translate(638.41 515.97) rotate(180)" style="fill:#fafafa"></rect><rect x="291.02" y="252.2" width="11.56" height="11.57" transform="translate(593.61 515.97) rotate(180)" style="fill:#fafafa"></rect><rect x="358.23" y="273.21" width="11.57" height="11.57" transform="translate(728.02 557.99) rotate(180)" style="fill:#fafafa"></rect><rect x="335.82" y="273.21" width="11.57" height="11.57" transform="translate(683.21 557.99) rotate(180)" style="fill:#fafafa"></rect><rect x="313.42" y="273.21" width="11.56" height="11.57" transform="translate(638.41 557.99) rotate(180)" style="fill:#fafafa"></rect><rect x="335.82" y="213.03" width="11.57" height="11.56" transform="translate(683.21 437.62) rotate(180)" style="fill:#fafafa"></rect><rect x="313.42" y="213.03" width="11.56" height="11.56" transform="translate(638.41 437.62) rotate(180)" style="fill:#fafafa"></rect><rect x="291.02" y="273.21" width="11.56" height="11.57" transform="translate(593.61 557.99) rotate(180)" style="fill:#fafafa"></rect><rect x="358.23" y="294.23" width="11.57" height="11.56" transform="translate(728.02 600.02) rotate(180)" style="fill:#fafafa"></rect><rect x="335.82" y="294.23" width="11.57" height="11.56" transform="translate(683.21 600.02) rotate(180)" style="fill:#fafafa"></rect><rect x="313.42" y="294.23" width="11.56" height="11.56" transform="translate(638.41 600.02) rotate(180)" style="fill:#fafafa"></rect><rect x="291.02" y="294.23" width="11.56" height="11.56" transform="translate(593.61 600.02) rotate(180)" style="fill:#fafafa"></rect><rect x="358.23" y="315.24" width="11.57" height="11.57" transform="translate(728.02 642.05) rotate(180)" style="fill:#fafafa"></rect><rect x="335.82" y="315.24" width="11.57" height="11.57" transform="translate(683.21 642.05) rotate(180)" style="fill:#fafafa"></rect><rect x="313.42" y="315.24" width="11.56" height="11.57" transform="translate(638.41 642.05) rotate(180)" style="fill:#fafafa"></rect><rect x="291.02" y="315.24" width="11.56" height="11.57" transform="translate(593.61 642.05) rotate(180)" style="fill:#fafafa"></rect><rect x="358.23" y="336.25" width="11.57" height="11.57" transform="translate(728.02 684.07) rotate(180)" style="fill:#fafafa"></rect><rect x="335.82" y="336.25" width="11.57" height="11.57" transform="translate(683.21 684.07) rotate(180)" style="fill:#fafafa"></rect><rect x="313.42" y="336.25" width="11.56" height="11.57" transform="translate(638.41 684.07) rotate(180)" style="fill:#fafafa"></rect><rect x="291.02" y="336.25" width="11.56" height="11.57" transform="translate(593.61 684.07) rotate(180)" style="fill:#fafafa"></rect><rect x="358.23" y="357.27" width="11.57" height="11.57" transform="translate(728.02 726.1) rotate(180)" style="fill:#fafafa"></rect><rect x="335.82" y="357.27" width="11.57" height="11.57" transform="translate(683.21 726.1) rotate(180)" style="fill:#fafafa"></rect><rect x="313.42" y="357.27" width="11.56" height="11.57" transform="translate(638.41 726.1) rotate(180)" style="fill:#fafafa"></rect><rect x="291.02" y="357.27" width="11.56" height="11.57" transform="translate(593.61 726.1) rotate(180)" style="fill:#fafafa"></rect><rect x="283.38" y="223.17" width="94.06" height="2.36" style="fill:#f5f5f5"></rect><rect x="292.21" y="190.84" width="23.13" height="2.36" transform="translate(495.78 -111.75) rotate(90)" style="fill:#ebebeb"></rect><rect x="345.48" y="190.84" width="23.13" height="2.36" transform="translate(549.06 -165.03) rotate(90)" style="fill:#ebebeb"></rect><rect x="318.84" y="190.84" width="23.13" height="2.36" transform="translate(522.42 -138.39) rotate(90)" style="fill:#ebebeb"></rect><rect x="300.23" y="201.22" width="60.36" height="2.36" style="fill:#f5f5f5"></rect><rect x="300.23" y="179.27" width="60.36" height="2.36" style="fill:#f5f5f5"></rect><rect x="292.2" y="168.89" width="23.13" height="2.36" transform="translate(473.84 -133.7) rotate(90)" style="fill:#ebebeb"></rect><rect x="345.48" y="168.89" width="23.13" height="2.36" transform="translate(527.11 -186.98) rotate(90)" style="fill:#ebebeb"></rect><rect x="318.84" y="168.89" width="23.13" height="2.36" transform="translate(500.48 -160.34) rotate(90)" style="fill:#ebebeb"></rect><rect x="300.23" y="157.33" width="60.36" height="2.36" style="fill:#f5f5f5"></rect><rect x="292.21" y="146.94" width="23.13" height="2.36" transform="translate(451.89 -155.65) rotate(90)" style="fill:#ebebeb"></rect><rect x="345.48" y="146.94" width="23.13" height="2.36" transform="translate(505.17 -208.92) rotate(90)" style="fill:#ebebeb"></rect><rect x="318.84" y="146.94" width="23.13" height="2.36" transform="translate(478.53 -182.28) rotate(90)" style="fill:#ebebeb"></rect><rect x="300.23" y="135.38" width="60.36" height="2.36" style="fill:#f5f5f5"></rect><rect x="345.48" y="125" width="23.13" height="2.36" transform="translate(483.22 -230.87) rotate(90)" style="fill:#ebebeb"></rect><rect x="318.84" y="125" width="23.13" height="2.36" transform="translate(456.58 -204.23) rotate(90)" style="fill:#ebebeb"></rect><path d="M315.12,165.46v-4.9a.59.59,0,0,0-1.17,0v5.38a.6.6,0,0,0,.59.59c1.85.18,3.19,2.48,1.66,4a2.4,2.4,0,0,1-4-1.66c-.08-.74-1.25-.75-1.17,0,.29,2.9,3.69,4.83,6,2.49C319.18,169.19,317.7,166.11,315.12,165.46Z" style="fill:#ebebeb"></path><path d="M229,130.29v10.62L217.8,129.74l-.55.55h-.78v100.8h14.06V130.29ZM218,207.19l9.84,9.84H218Zm0-25,9.84,9.84H218Zm0-25,9.84,9.85H218Zm0-25,9.84,9.84H218Zm9.84,11.4L218,153.41v-9.84Zm1.11,1.1v9.84h-9.85Zm-1.11,23.9L218,178.42v-9.85Zm1.11,1.11v9.84h-9.85Zm-1.11,23.9L218,203.42v-9.84Zm1.11,1.1v9.84h-9.85Zm-1.11,23.91L218,228.43v-9.84Zm-8.74,10.94,9.85-9.84v9.84Zm9.85-13.6-9.85-9.85H229Zm0-25-9.85-9.84H229Zm0-25-9.85-9.84H229Z" style="fill:#f0f0f0"></path><path d="M218,97.08v19.54h1.56v-7.5l8,8,.55-.55H229V97.08Zm8.28,1.56-6.72,6.72V98.64Zm1.1,16.1L220.7,108h6.71Zm-6.71-8.28,6.71-6.72v6.72Z" style="fill:#f0f0f0"></path><rect x="173.61" y="130.29" width="18.75" height="18.75" style="fill:#e6e6e6"></rect><polygon points="314.79 157.34 313.75 157.34 313.75 121.28 226.42 92.33 220.65 92.33 173.89 121.35 173.34 120.47 220.35 91.29 226.59 91.29 226.67 91.31 314.79 120.53 314.79 157.34" style="fill:#e6e6e6"></polygon><path d="M304.11,131.1h1.08l11-11H172.83v10.94H304.11Zm1.56-9.41h6.72l-6.72,6.71Zm-131.28,7.82v-6.72l6.72,6.72Zm7.82-1.11-6.72-6.71h6.72Zm1.56-6.71h6.72l-6.72,6.71Zm7.82,7.82h-6.72l6.72-6.72Zm1.56,0v-6.72l6.71,6.72ZM201,128.4l-6.71-6.71H201Zm1.56-6.71h6.72l-6.72,6.71Zm7.82,7.82h-6.71l6.71-6.72Zm1.56,0v-6.72l6.72,6.72Zm7.82-1.11L213,121.69h6.72Zm1.56-6.71H228l-6.71,6.71Zm7.82,7.82h-6.72l6.72-6.72Zm1.56,0v-6.72l6.71,6.72Zm7.81-1.11-6.71-6.71h6.71Zm1.56-6.71h6.72L240,128.4Zm7.82,7.82h-6.72l6.72-6.72Zm1.56,0v-6.72l6.72,6.72Zm7.82-1.11-6.72-6.71h6.72Zm1.56-6.71h6.71l-6.71,6.71Zm7.82,7.82h-6.72l6.72-6.72Zm1.55,0v-6.72l6.72,6.72ZM276,128.4l-6.71-6.71H276Zm1.56-6.71h6.72l-6.72,6.71Zm7.82,7.82h-6.72l6.72-6.72Zm1.56-7.82h6.71l-6.71,6.71Zm7.82,7.82H288l6.72-6.72Zm1.56,0v-6.72l6.71,6.72Zm1.1-7.82h6.71v6.71Z" style="fill:#f0f0f0"></path><path d="M237.47,134.54H208.63l1.05-12.13a6.34,6.34,0,0,1,6.32-5.79h13.74a6.34,6.34,0,0,1,6.3,5.61Z" style="fill:#f0f0f0"></path><rect x="213.28" y="121.66" width="5.54" height="5.54" style="fill:#fafafa"></rect><rect x="220.28" y="121.66" width="5.54" height="5.54" style="fill:#fafafa"></rect><rect x="227.28" y="121.66" width="5.54" height="5.54" style="fill:#fafafa"></rect><circle cx="223.5" cy="94.09" r="3.78" style="fill:#e6e6e6"></circle><path d="M314.54,163.79h0a3.23,3.23,0,0,1-3.23-3.23v-3.22h6.46v3.22A3.23,3.23,0,0,1,314.54,163.79Z" style="fill:#e6e6e6"></path><path d="M320.32,139.42v-4.19a.5.5,0,0,1,1,0v4.6a.51.51,0,0,1-.5.5c-1.58.16-2.73,2.12-1.42,3.43a2.05,2.05,0,0,0,3.43-1.42c.07-.64,1.07-.64,1,0-.25,2.48-3.15,4.13-5.13,2.13S318.12,140,320.32,139.42Z" style="fill:#ebebeb"></path><path d="M392.67,109.33v86.22h12V109.33H404l-.47-.47L394,118.41v-9.08Zm10.7,74.19H395l8.42-8.42Zm0-21.39H395l8.42-8.42Zm0-21.39H395l8.42-8.41Zm0-21.38H395l8.42-8.42Zm0,1.33v8.42L395,120.69Zm-.95,9.36H394v-8.42Zm.95,12v8.41L395,142.08Zm-.95,9.36H394V143Zm.95,12v8.42L395,163.46Zm-.95,9.36H394v-8.41Zm.95,12v8.42L395,184.85ZM394,194.21v-8.42l8.41,8.42Zm0-20.05h8.41L394,182.58Zm0-21.39h8.41L394,161.19Zm0-21.39h8.41L394,139.8Z" style="fill:#ebebeb"></path><path d="M394,80.93V97.64h.67l.47.47L402,91.23v6.41h1.33V80.93Zm8,1.33V88l-5.74-5.75Zm-6.69,8h5.75L395.34,96Zm0-1.33V83.21L401.09,89Z" style="fill:#ebebeb"></path><rect x="425.32" y="109.33" width="16.04" height="16.04" transform="translate(866.68 234.7) rotate(180)" style="fill:#f0f0f0"></rect><polygon points="320.61 132.47 321.5 132.47 321.5 101.63 396.19 76.86 401.13 76.86 441.12 101.69 441.59 100.93 401.38 75.97 396.05 75.97 395.98 76 320.61 100.99 320.61 132.47" style="fill:#e6e6e6"></polygon><path d="M329.74,110H442v-9.36H319.44l9.38,9.38h.92Zm-1.33-2.28L322.66,102h5.75Zm106.54.94,5.74-5.74v5.74ZM434,102h5.75L434,107.72Zm-1.33,5.74L426.93,102h5.74Zm-6.69-4.8,5.75,5.74H426Zm-7.07,5.74,5.74-5.74v5.74ZM418,102h5.75L418,107.72Zm-1.33,5.74L410.89,102h5.74Zm-6.69-4.8,5.75,5.74h-5.75Zm-7.07,5.74,5.74-5.74v5.74Zm-.95-6.68h5.75l-5.75,5.74Zm-1.33,5.74L394.85,102h5.74Zm-6.69-4.8,5.75,5.74H393.9Zm-7.07,5.74,5.74-5.74v5.74Zm-.95-6.68h5.75l-5.75,5.74Zm-1.33,5.74L378.8,102h5.75Zm-6.69-4.8,5.75,5.74h-5.75Zm-7.08,5.74,5.75-5.74v5.74Zm-.94-6.68h5.75l-5.75,5.74Zm-1.33,5.74L362.76,102h5.75Zm-6.69-4.8,5.75,5.74h-5.75Zm-7.08,5.74,5.75-5.74v5.74ZM353.8,102h5.75l-5.75,5.74Zm-1.33,5.74L346.72,102h5.75Zm-6.69-4.8,5.75,5.74h-5.75Zm-1.33,4.8L338.7,102h5.75Zm-6.69-4.8,5.74,5.74h-5.74Zm-7.08,5.74,5.75-5.74v5.74Zm-.94-.94V102h5.74Z" style="fill:#ebebeb"></path><path d="M386.74,113h24.67l-.9-10.38a5.43,5.43,0,0,0-5.41-5H393.35a5.43,5.43,0,0,0-5.39,4.8Z" style="fill:#ebebeb"></path><rect x="402.7" y="101.95" width="4.74" height="4.74" transform="translate(810.13 208.63) rotate(180)" style="fill:#fafafa"></rect><rect x="396.71" y="101.95" width="4.74" height="4.74" transform="translate(798.15 208.63) rotate(180)" style="fill:#fafafa"></rect><rect x="390.72" y="101.95" width="4.74" height="4.74" transform="translate(786.18 208.63) rotate(180)" style="fill:#fafafa"></rect><path d="M395.46,78.37a3.23,3.23,0,1,0,3.23-3.23A3.23,3.23,0,0,0,395.46,78.37Z" style="fill:#e6e6e6"></path><path d="M320.82,138h0a2.75,2.75,0,0,0,2.76-2.75v-2.76h-5.52v2.76A2.76,2.76,0,0,0,320.82,138Z" style="fill:#e6e6e6"></path></g><g id="freepik--Shadow--inject-31"><ellipse id="freepik--path--inject-31" cx="245.18" cy="412.39" rx="193.89" ry="11.32" style="fill:#f5f5f5"></ellipse></g><g id="freepik--trux-mixer--inject-31"><rect x="184.82" y="343.54" width="189.91" height="14.67" transform="translate(559.55 701.75) rotate(180)" style="fill:#807F7F"></rect><rect x="184.82" y="343.54" width="189.91" height="14.67" transform="translate(559.55 701.75) rotate(180)" style="opacity:0.2"></rect><path d="M403.44,346.82h8.22a17.72,17.72,0,0,1,0,35.43h-8.22a17.72,17.72,0,0,1,0-35.43Z" style="fill:#263238"></path><circle cx="403.44" cy="364.54" r="17.71" transform="translate(-87.74 597.77) rotate(-67.5)" style="opacity:0.5"></circle><path d="M263.4,346.82h8.21a17.72,17.72,0,1,1,0,35.43H263.4a17.72,17.72,0,1,1,0-35.43Z" style="fill:#263238"></path><circle cx="263.4" cy="364.54" r="17.71" transform="translate(-174.19 468.38) rotate(-67.5)" style="opacity:0.5"></circle><path d="M354,346.82h8.21a17.72,17.72,0,1,1,0,35.43H354a17.72,17.72,0,1,1,0-35.43Z" style="fill:#263238"></path><path d="M354,346.82h8.21a17.72,17.72,0,1,1,0,35.43H354a17.72,17.72,0,1,1,0-35.43Z" style="opacity:0.5"></path><path d="M310.89,346.82h8.21a17.72,17.72,0,1,1,0,35.43h-8.21a17.72,17.72,0,1,1,0-35.43Z" style="fill:#263238"></path><path d="M310.89,346.82h8.21a17.72,17.72,0,1,1,0,35.43h-8.21a17.72,17.72,0,1,1,0-35.43Z" style="opacity:0.5"></path><path d="M210.62,346.82h8.21a17.72,17.72,0,1,1,0,35.43h-8.21a17.72,17.72,0,1,1,0-35.43Z" style="fill:#263238"></path><path d="M210.62,346.82h8.21a17.72,17.72,0,1,1,0,35.43h-8.21a17.72,17.72,0,1,1,0-35.43Z" style="opacity:0.5"></path><circle cx="210.62" cy="364.54" r="17.71" transform="translate(-206.77 419.62) rotate(-67.5)" style="fill:#263238"></circle><path d="M198.67,364.54a12,12,0,1,0,12-12A11.95,11.95,0,0,0,198.67,364.54Zm19.1,2.51-.52-.56a1.19,1.19,0,0,1-.33-1,5.62,5.62,0,0,0,0-1.89,1.19,1.19,0,0,1,.33-1l.52-.56a1.26,1.26,0,0,1,2.15.62,9.6,9.6,0,0,1,0,3.8A1.26,1.26,0,0,1,217.77,367.05ZM212,372l.23-.75a1.27,1.27,0,0,1,.76-.79,6.15,6.15,0,0,0,1.55-.9,1.27,1.27,0,0,1,1-.26l.78.18a1.26,1.26,0,0,1,.54,2.18,9.63,9.63,0,0,1-3.27,1.89A1.27,1.27,0,0,1,212,372Zm1.63-16.45a9.47,9.47,0,0,1,3.27,1.89,1.26,1.26,0,0,1-.54,2.17l-.78.18a1.2,1.2,0,0,1-1-.26,6.47,6.47,0,0,0-1.55-.9,1.25,1.25,0,0,1-.76-.78l-.23-.75A1.26,1.26,0,0,1,213.64,355.54Zm-4.42,1.55-.23.75a1.25,1.25,0,0,1-.76.78,6.47,6.47,0,0,0-1.55.9,1.2,1.2,0,0,1-1,.26l-.78-.18a1.26,1.26,0,0,1-.54-2.17,9.47,9.47,0,0,1,3.27-1.89A1.26,1.26,0,0,1,209.22,357.09Zm-4.36,12.38.78-.18a1.27,1.27,0,0,1,1,.26,6.15,6.15,0,0,0,1.55.9,1.27,1.27,0,0,1,.76.79l.23.75a1.27,1.27,0,0,1-1.63,1.55,9.63,9.63,0,0,1-3.27-1.89A1.27,1.27,0,0,1,204.86,369.47Zm-3.55-3a9.59,9.59,0,0,1,0-3.8,1.26,1.26,0,0,1,2.15-.62l.53.56a1.21,1.21,0,0,1,.32,1,6.41,6.41,0,0,0,0,1.89,1.21,1.21,0,0,1-.32,1l-.53.56A1.26,1.26,0,0,1,201.31,366.44Z" style="fill:#807F7F"></path><circle cx="310.89" cy="364.54" r="17.71" transform="translate(-144.87 512.26) rotate(-67.5)" style="fill:#263238"></circle><path d="M298.94,364.54a11.95,11.95,0,1,0,11.95-12A11.95,11.95,0,0,0,298.94,364.54Zm19.1,2.51-.52-.56a1.22,1.22,0,0,1-.33-1,5.62,5.62,0,0,0,0-1.89,1.22,1.22,0,0,1,.33-1L318,362a1.26,1.26,0,0,1,2.15.62,9.13,9.13,0,0,1,0,3.8A1.26,1.26,0,0,1,318,367.05ZM312.28,372l.23-.75a1.29,1.29,0,0,1,.76-.79,6.21,6.21,0,0,0,1.56-.9,1.24,1.24,0,0,1,1-.26l.78.18a1.26,1.26,0,0,1,.54,2.18,9.53,9.53,0,0,1-3.27,1.89A1.27,1.27,0,0,1,312.28,372Zm1.63-16.45a9.38,9.38,0,0,1,3.27,1.89,1.26,1.26,0,0,1-.54,2.17l-.78.18a1.18,1.18,0,0,1-1-.26,6.53,6.53,0,0,0-1.56-.9,1.28,1.28,0,0,1-.76-.78l-.23-.75A1.26,1.26,0,0,1,313.91,355.54Zm-4.42,1.55-.23.75a1.26,1.26,0,0,1-.75.78,6.35,6.35,0,0,0-1.56.9,1.2,1.2,0,0,1-1,.26l-.77-.18a1.26,1.26,0,0,1-.54-2.17,9.38,9.38,0,0,1,3.27-1.89A1.26,1.26,0,0,1,309.49,357.09Zm-4.35,12.38.77-.18a1.27,1.27,0,0,1,1,.26,6,6,0,0,0,1.56.9,1.28,1.28,0,0,1,.75.79l.23.75a1.26,1.26,0,0,1-1.62,1.55,9.53,9.53,0,0,1-3.27-1.89A1.26,1.26,0,0,1,305.14,369.47Zm-3.56-3a9.59,9.59,0,0,1,0-3.8,1.26,1.26,0,0,1,2.16-.62l.52.56a1.21,1.21,0,0,1,.32,1,6.41,6.41,0,0,0,0,1.89,1.21,1.21,0,0,1-.32,1l-.52.56A1.26,1.26,0,0,1,301.58,366.44Z" style="fill:#807F7F"></path><circle cx="354" cy="364.54" r="17.71" transform="translate(-118.26 552.09) rotate(-67.5)" style="fill:#263238"></circle><path d="M372.41,355.47h7.06v7.33h-5A20.35,20.35,0,0,0,372.41,355.47Z" style="fill:#263238"></path><path d="M333.55,362.8h-2.21a20.35,20.35,0,0,0-2-7.33h6.28A20.34,20.34,0,0,0,333.55,362.8Z" style="fill:#263238"></path><g style="opacity:0.8"><path d="M372.41,355.47h7.06v7.33h-5A20.35,20.35,0,0,0,372.41,355.47Z" style="fill:#fff"></path><path d="M333.55,362.8h-2.21a20.35,20.35,0,0,0-2-7.33h6.28A20.34,20.34,0,0,0,333.55,362.8Z" style="fill:#fff"></path></g><path d="M342.05,364.54a11.95,11.95,0,1,0,11.95-12A11.95,11.95,0,0,0,342.05,364.54Zm19.1,2.51-.52-.56a1.19,1.19,0,0,1-.33-1,5.62,5.62,0,0,0,0-1.89,1.19,1.19,0,0,1,.33-1l.52-.56a1.26,1.26,0,0,1,2.15.62,9.6,9.6,0,0,1,0,3.8A1.26,1.26,0,0,1,361.15,367.05ZM355.39,372l.23-.75a1.29,1.29,0,0,1,.76-.79,6.21,6.21,0,0,0,1.56-.9,1.23,1.23,0,0,1,1-.26l.78.18a1.26,1.26,0,0,1,.54,2.18,9.53,9.53,0,0,1-3.27,1.89A1.27,1.27,0,0,1,355.39,372ZM357,355.54a9.38,9.38,0,0,1,3.27,1.89,1.26,1.26,0,0,1-.54,2.17l-.78.18a1.17,1.17,0,0,1-1-.26,6.53,6.53,0,0,0-1.56-.9,1.28,1.28,0,0,1-.76-.78l-.23-.75A1.26,1.26,0,0,1,357,355.54Zm-4.42,1.55-.23.75a1.26,1.26,0,0,1-.75.78,6.35,6.35,0,0,0-1.56.9,1.2,1.2,0,0,1-1,.26l-.77-.18a1.26,1.26,0,0,1-.54-2.17,9.38,9.38,0,0,1,3.27-1.89A1.26,1.26,0,0,1,352.6,357.09Zm-4.35,12.38.77-.18a1.27,1.27,0,0,1,1,.26,6,6,0,0,0,1.56.9,1.28,1.28,0,0,1,.75.79l.23.75a1.26,1.26,0,0,1-1.62,1.55,9.53,9.53,0,0,1-3.27-1.89A1.26,1.26,0,0,1,348.25,369.47Zm-3.56-3a9.59,9.59,0,0,1,0-3.8,1.26,1.26,0,0,1,2.16-.62l.52.56a1.21,1.21,0,0,1,.32,1,6.41,6.41,0,0,0,0,1.89,1.21,1.21,0,0,1-.32,1l-.52.56A1.26,1.26,0,0,1,344.69,366.44Z" style="fill:#807F7F"></path><rect x="244.61" y="267.95" width="29.45" height="87.52" transform="translate(518.68 623.42) rotate(180)" style="fill:#807F7F"></rect><rect x="244.61" y="267.95" width="29.45" height="87.52" transform="translate(518.68 623.42) rotate(180)" style="opacity:0.2"></rect><path d="M198.18,268h46.27v87.52H229a20.53,20.53,0,0,0-36.83,0H159.83V306.3Z" style="fill:#807F7F"></path><path d="M169.07,320.44v-7.65a6.42,6.42,0,0,1,1.88-4.54l29.17-29.18a6.45,6.45,0,0,1,4.54-1.88h23.15v43.25Z" style="fill:#263238"></path><path d="M169.07,320.44v-7.65a6.42,6.42,0,0,1,1.88-4.54l29.17-29.18a6.45,6.45,0,0,1,4.54-1.88h23.15v43.25Z" style="fill:#fff;opacity:0.5"></path><rect x="382.24" y="337.38" width="54.53" height="18.08" transform="translate(819.01 692.85) rotate(180)" style="fill:#807F7F"></rect><rect x="382.24" y="337.38" width="54.53" height="18.08" transform="translate(819.01 692.85) rotate(180)" style="opacity:0.2"></rect><rect x="390.93" y="341.19" width="37.15" height="6.56" rx="1.57" transform="translate(819.01 688.94) rotate(180)" style="fill:#fff"></rect><path d="M195.44,324.49h6a1.9,1.9,0,0,1,0,3.79h-6a1.9,1.9,0,0,1,0-3.79Z" style="fill:#fff"></path><path d="M161.45,329.39h5.21a2.4,2.4,0,0,1,2.4,2.4v14.43a2.4,2.4,0,0,1-2.4,2.4h-5.21a4.41,4.41,0,0,1-4.41-4.41V333.8A4.41,4.41,0,0,1,161.45,329.39Z" transform="translate(326.11 678.02) rotate(180)" style="fill:#807F7F"></path><path d="M161.45,329.39h5.21a2.4,2.4,0,0,1,2.4,2.4v14.43a2.4,2.4,0,0,1-2.4,2.4h-5.21a4.41,4.41,0,0,1-4.41-4.41V333.8A4.41,4.41,0,0,1,161.45,329.39Z" transform="translate(326.11 678.02) rotate(180)" style="opacity:0.2"></path><path d="M160.66,346.81h0a1.7,1.7,0,0,0,1.7-1.7V332.9a1.7,1.7,0,0,0-1.7-1.69h0A1.69,1.69,0,0,0,159,332.9v12.21A1.7,1.7,0,0,0,160.66,346.81Z" style="fill:#fff"></path><path d="M173.37,315.39h0a1.7,1.7,0,0,0,1.7-1.7V301.48a1.7,1.7,0,0,0-1.7-1.7h0a1.7,1.7,0,0,0-1.69,1.7v12.21A1.7,1.7,0,0,0,173.37,315.39Z" style="fill:#263238"></path><path d="M268,291.18h12.13a12.13,12.13,0,0,1,1.54,24.16L286.6,354H255.86v-50.7A12.14,12.14,0,0,1,268,291.18Z" style="fill:#263238"></path><path d="M268,291.18a12.13,12.13,0,0,1,1.53,24.16L274.47,354H255.86v-50.7A12.14,12.14,0,0,1,268,291.18Z" style="fill:#263238"></path><path d="M268,291.18a12.13,12.13,0,0,1,1.53,24.16L274.47,354H255.86v-50.7A12.14,12.14,0,0,1,268,291.18Z" style="fill:#fff;opacity:0.2"></path><path d="M301.63,246.29A69.41,69.41,0,0,0,339.2,337l-37.51-1.08a47.71,47.71,0,0,1-25.82-62.33Z" style="fill:#807F7F"></path><path d="M301.63,246.29A69.41,69.41,0,0,0,339.2,337l-37.51-1.08a47.71,47.71,0,0,1-25.82-62.33Z" style="fill:#fff;opacity:0.6000000000000001"></path><path d="M398.24,222.88a47.71,47.71,0,0,0,25.82,62.33A47.7,47.7,0,0,0,398.24,222.88Z" style="fill:#807F7F"></path><path d="M398.24,222.88a47.71,47.71,0,0,0,25.82,62.33A47.7,47.7,0,0,0,398.24,222.88Z" style="fill:#fff;opacity:0.2"></path><path d="M399.83,237.12A35,35,0,0,0,415.12,274a4.85,4.85,0,0,0,7.36-3,35,35,0,0,0-15.29-36.91A4.85,4.85,0,0,0,399.83,237.12Z" style="fill:#263238"></path><path d="M399.83,237.12A35,35,0,0,0,415.12,274a4.85,4.85,0,0,0,7.36-3,35,35,0,0,0-15.29-36.91A4.85,4.85,0,0,0,399.83,237.12Z" style="fill:#fff;opacity:0.1"></path><path d="M409.5,269.55A35.06,35.06,0,0,1,399,243.79,35.08,35.08,0,0,1,409.5,269.55Z" style="opacity:0.7000000000000001"></path><path d="M301.63,246.29A69.41,69.41,0,0,0,339.2,337l59.1-24.48a69.41,69.41,0,0,1-37.56-90.7Z" style="fill:#807F7F"></path><path d="M301.63,246.29A69.41,69.41,0,0,0,339.2,337l59.1-24.48a69.41,69.41,0,0,1-37.56-90.7Z" style="fill:#fff;opacity:0.7000000000000001"></path><path d="M360.74,221.8a69.41,69.41,0,0,0,37.56,90.7l25.76-27.29a47.71,47.71,0,0,1-25.82-62.33Z" style="fill:#807F7F"></path><path d="M360.74,221.8a69.41,69.41,0,0,0,37.56,90.7l25.76-27.29a47.71,47.71,0,0,1-25.82-62.33Z" style="fill:#fff;opacity:0.8"></path><path d="M382.24,337.38v18.09h-9.83a20.53,20.53,0,0,0-36.83,0H329.3a20.53,20.53,0,0,0-36.83,0h-48V337.38Z" style="fill:#807F7F"></path><path d="M291,329.78c4.58-5.17,11.07-10.45,19-15.48A69.08,69.08,0,0,0,339.2,337l-37.51-1.08A47.56,47.56,0,0,1,291,329.78Z" style="opacity:0.1"></path><path d="M310.07,314.3a187.56,187.56,0,0,1,42.41-19.25c5.8-1.86,11.53-3.41,17.12-4.7a69.09,69.09,0,0,0,28.7,22.15L339.2,337A69.08,69.08,0,0,1,310.07,314.3Z" style="opacity:0.1"></path><path d="M421.88,287.52l-23.58,25a69.09,69.09,0,0,1-28.7-22.15C390.25,285.6,408.91,284.72,421.88,287.52Z" style="opacity:0.1"></path><rect x="379.47" y="355.47" width="60.07" height="7.33" style="fill:#263238"></rect><path d="M192.2,355.47a20.34,20.34,0,0,0-2,7.33H155.71v-7.33Z" style="fill:#263238"></path><path d="M290.42,362.4H231.05a20.59,20.59,0,0,0-1.84-6.93h63A20.59,20.59,0,0,0,290.42,362.4Z" style="fill:#263238"></path><rect x="379.47" y="355.47" width="60.07" height="7.33" style="fill:#fff;opacity:0.5"></rect><path d="M192.2,355.47a20.34,20.34,0,0,0-2,7.33H155.71v-7.33Z" style="fill:#fff;opacity:0.8"></path><path d="M290.42,362.4H231.05a20.59,20.59,0,0,0-1.84-6.93h63A20.59,20.59,0,0,0,290.42,362.4Z" style="fill:#fff;opacity:0.8"></path><path d="M414,295.88l4.68,41.5H381.05L385.72,296A20.09,20.09,0,0,0,414,295.88Z" style="fill:#263238"></path><path d="M414,295.88l4.68,41.5H381.05L385.72,296A20.09,20.09,0,0,0,414,295.88Z" style="fill:#fff;opacity:0.5"></path><polygon points="374.73 337.38 379.4 295.99 385.7 295.99 381.03 337.38 374.73 337.38" style="fill:#263238"></polygon><polygon points="374.73 337.38 379.4 295.99 385.7 295.99 381.03 337.38 374.73 337.38" style="fill:#fff;opacity:0.2"></polygon></g><g id="freepik--Character--inject-31"><path d="M115.33,157.05s16.76,7.72,75.43,1.43L181,236.4a209.4,209.4,0,0,1-64.36-6.66Z" style="fill:#807F7F"></path><path d="M115.33,157.05s16.76,7.72,75.43,1.43L181,236.4a209.4,209.4,0,0,1-64.36-6.66Z" style="fill:#fff;opacity:0.8"></path><path d="M121.19,164.54l1.09,60.75a209.35,209.35,0,0,0,53.63,5.62l8.28-66C149.85,168.11,130.81,166.38,121.19,164.54Z" style="opacity:0.1"></path><path d="M185.8,234.7c-.11,1.18-2.27,2-4.81,1.7s-4.52-1.41-4.4-2.59l5.66-77.35c.16-1.65,3.16-2.72,6.7-2.37s6.28,2,6.12,3.61Z" style="fill:#807F7F"></path><path d="M185.8,234.7c-.11,1.18-2.27,2-4.81,1.7s-4.52-1.41-4.4-2.59l5.66-77.35c.16-1.65,3.16-2.72,6.7-2.37s6.28,2,6.12,3.61Z" style="fill:#fff;opacity:0.6000000000000001"></path><path d="M185.8,234.7c-.11,1.18-2.27,2-4.81,1.7s-4.52-1.41-4.4-2.59,2.27-1.95,4.81-1.71S185.92,233.51,185.8,234.7Z" style="opacity:0.1"></path><path d="M158.62,197.08l1.53.06c0-.23,0-.35.09-.59l-.92,0c.06-.35.09-.53.14-.88l-.61,0C158.76,196.19,158.71,196.49,158.62,197.08Z" style="fill:#807F7F"></path><path d="M161.69,196.61l1.45,0c0,.24,0,.36-.08.6l-1.46-.05C161.64,197,161.65,196.84,161.69,196.61Zm2.9.08,1.46,0c0,.24-.05.36-.08.6l-1.46,0C164.54,197.05,164.56,196.93,164.59,196.69Z" style="fill:#807F7F"></path><path d="M167.5,196.75l1.45,0c0,.25,0,.37-.07.61l-1.46,0C167.45,197.12,167.47,197,167.5,196.75Zm2.91,0h1.45c0,.25,0,.37-.06.61h-1.46C170.37,197.15,170.38,197,170.41,196.79Zm2.91,0h1.46c0,.24,0,.37-.07.61h-1.45C173.28,197.16,173.29,197,173.32,196.79Z" style="fill:#807F7F"></path><path d="M176.17,197.39l1.53,0c.06-.62.09-.93.14-1.55h-.61c0,.37,0,.56-.08.93h-.92C176.21,197,176.2,197.14,176.17,197.39Z" style="fill:#807F7F"></path><path d="M177.5,192.88h.6c0,.59-.08.89-.13,1.48h-.6C177.42,193.77,177.45,193.47,177.5,192.88Zm.26-2.95.6,0c-.05.59-.08.89-.13,1.48l-.6,0C177.68,190.81,177.71,190.52,177.76,189.93Z" style="fill:#807F7F"></path><path d="M178,187l.59,0c0,.6-.07.89-.12,1.49l-.59,0C177.94,187.86,178,187.56,178,187Zm.24-3,.59,0c-.05.59-.07.89-.12,1.48l-.59,0C178.18,184.89,178.21,184.6,178.25,184Zm.24-3,.58,0c0,.6-.07.9-.11,1.49l-.59,0C178.42,181.93,178.44,181.63,178.49,181Z" style="fill:#807F7F"></path><path d="M178.61,179.55l.57,0c0-.62.07-.93.12-1.56l-1.43.09-.05.62.86,0C178.65,179,178.64,179.17,178.61,179.55Z" style="fill:#807F7F"></path><path d="M172.39,178.3l1.37-.05c0,.24,0,.37-.06.61l-1.37.06C172.36,178.67,172.37,178.55,172.39,178.3Zm2.74-.12,1.37-.07-.05.63-1.38.06C175.1,178.55,175.11,178.43,175.13,178.18Z" style="fill:#807F7F"></path><path d="M164.18,178.5h1.37c0,.24-.05.36-.08.6H164.1C164.14,178.86,164.15,178.74,164.18,178.5Zm2.74,0,1.37,0c0,.24,0,.37-.07.61l-1.37,0C166.87,178.83,166.89,178.7,166.92,178.46Zm2.73-.06,1.37-.05c0,.25,0,.37-.06.61l-1.37,0C169.61,178.76,169.63,178.64,169.65,178.4Z" style="fill:#807F7F"></path><path d="M161.17,180h.58c.05-.36.07-.53.12-.89h.86c0-.24.05-.36.08-.6h-1.43C161.3,179.12,161.25,179.42,161.17,180Z" style="fill:#807F7F"></path><path d="M160.56,184.28h.58l-.2,1.42h-.59C160.44,185.13,160.48,184.85,160.56,184.28Zm.41-2.84h.58l-.2,1.42h-.58Z" style="fill:#807F7F"></path><path d="M159.29,192.78l.6,0c-.08.56-.13.85-.21,1.41l-.61,0C159.16,193.63,159.2,193.34,159.29,192.78Zm.43-2.83.6,0c-.09.56-.13.85-.22,1.41l-.59,0C159.59,190.8,159.64,190.52,159.72,190Zm.42-2.83h.59l-.2,1.42-.6,0C160,188,160.06,187.68,160.14,187.12Z" style="fill:#807F7F"></path><path d="M140.24,195.68l1.52.16c.05-.23.07-.34.12-.56l-.9-.1c.07-.33.11-.5.18-.84l-.6-.06Z" style="fill:#807F7F"></path><path d="M143.33,195.42l1.44.13-.12.57L143.2,196Zm2.89.26,1.44.12c0,.23-.07.34-.11.57l-1.45-.12C146.15,196,146.17,195.9,146.22,195.68Z" style="fill:#807F7F"></path><path d="M149.11,195.91l1.45.11c-.05.23-.07.34-.11.57l-1.45-.11C149,196.25,149.06,196.14,149.11,195.91Zm2.89.2,1.45.1-.1.58-1.45-.1Zm2.9.18,1.45.08-.1.59-1.45-.08Z" style="fill:#807F7F"></path><path d="M157.71,197l1.52.07c.09-.59.14-.88.23-1.47l-.61,0c0,.36-.08.53-.14.89l-.91-.05C157.76,196.68,157.75,196.8,157.71,197Z" style="fill:#807F7F"></path><path d="M159.29,192.78l.6,0c-.08.56-.13.85-.21,1.41l-.61,0C159.16,193.62,159.2,193.34,159.29,192.78Zm.43-2.83.6,0c-.09.56-.13.85-.22,1.41l-.59,0C159.59,190.8,159.64,190.52,159.72,190Z" style="fill:#807F7F"></path><path d="M160.14,187.12h.59l-.2,1.42-.6,0C160,188,160.06,187.68,160.14,187.12Zm.42-2.84h.58l-.2,1.42h-.59C160.44,185.13,160.48,184.85,160.56,184.28Zm.41-2.84h.58l-.2,1.42h-.58Z" style="fill:#807F7F"></path><path d="M161.17,180h.58l.2-1.49h-1.43c0,.24-.05.36-.08.59h.86C161.25,179.47,161.22,179.65,161.17,180Z" style="fill:#807F7F"></path><path d="M155.05,178.46l1.37,0-.1.59L155,179Zm2.73,0h1.37c0,.24-.05.36-.09.6l-1.37,0C157.73,178.86,157.75,178.74,157.78,178.5Z" style="fill:#807F7F"></path><path d="M146.86,178.17l1.36.06c0,.23-.07.35-.11.58l-1.37-.07C146.79,178.52,146.81,178.4,146.86,178.17Zm2.73.12,1.36.05-.1.58-1.37,0C149.52,178.64,149.54,178.52,149.59,178.29Zm2.73.1,1.36,0c0,.24-.05.36-.09.59l-1.37,0Z" style="fill:#807F7F"></path><path d="M143.77,179.44l.57,0c.07-.34.11-.51.18-.86l.86,0c0-.23.06-.34.11-.57l-1.43-.08C143.94,178.59,143.88,178.87,143.77,179.44Z" style="fill:#807F7F"></path><path d="M142.91,183.51l.58,0-.28,1.35-.59,0C142.74,184.32,142.8,184.05,142.91,183.51Zm.57-2.71.58,0-.28,1.35-.58,0Z" style="fill:#807F7F"></path><path d="M141.16,191.59l.6.06-.3,1.35-.6-.06Zm.59-2.69.59,0c-.12.54-.17.81-.29,1.35l-.6-.05Zm.58-2.69.59,0c-.11.54-.17.81-.29,1.36l-.59-.05C142.16,187,142.22,186.75,142.33,186.21Z" style="fill:#807F7F"></path><path d="M122,193.21l1.5.24.15-.53-.9-.15c.1-.31.15-.47.24-.79l-.6-.1C122.24,192.41,122.17,192.68,122,193.21Z" style="fill:#807F7F"></path><path d="M125.1,193.14l1.43.22-.15.54-1.44-.22C125,193.47,125,193.36,125.1,193.14Zm2.86.43,1.44.21-.15.54-1.44-.2Z" style="fill:#807F7F"></path><path d="M130.83,194l1.44.19c-.06.22-.09.33-.14.55l-1.44-.2C130.75,194.31,130.77,194.2,130.83,194Zm2.87.37,1.44.18c0,.22-.08.33-.13.56l-1.44-.19Zm2.88.35,1.44.17c-.05.22-.08.33-.13.56l-1.44-.17C136.5,195,136.53,194.93,136.58,194.7Z" style="fill:#807F7F"></path><path d="M139.34,195.59l1.51.16c.13-.56.19-.85.31-1.41l-.6-.06c-.08.34-.11.51-.19.84l-.91-.09C139.41,195.25,139.39,195.36,139.34,195.59Z" style="fill:#807F7F"></path><path d="M141.16,191.59l.6.06-.3,1.35-.6-.06Zm.59-2.69.59,0c-.12.54-.17.81-.29,1.35l-.6-.05Z" style="fill:#807F7F"></path><path d="M142.33,186.21l.59,0c-.11.54-.17.81-.29,1.36l-.59-.05C142.16,187,142.22,186.75,142.33,186.21Zm.58-2.7.58,0-.28,1.35-.59,0C142.74,184.32,142.8,184.05,142.91,183.51Zm.57-2.71.58,0-.28,1.35-.58,0Z" style="fill:#807F7F"></path><path d="M143.77,179.44l.57,0c.12-.57.18-.86.29-1.43L143.2,178c0,.23-.07.34-.12.57l.86.05Z" style="fill:#807F7F"></path><path d="M137.75,177.58l1.36.11c-.05.22-.07.34-.12.56l-1.37-.11C137.67,177.92,137.7,177.81,137.75,177.58Zm2.73.21,1.36.09-.12.57-1.37-.1Z" style="fill:#807F7F"></path><path d="M129.59,176.82,131,177c-.06.22-.08.33-.14.55l-1.36-.15C129.51,177.14,129.53,177,129.59,176.82Zm2.72.28,1.36.13c-.06.22-.08.33-.14.55l-1.36-.13C132.23,177.43,132.25,177.32,132.31,177.1Zm2.72.25,1.36.12-.13.56-1.36-.12Z" style="fill:#807F7F"></path><path d="M126.44,177.85l.57.07c.09-.33.13-.49.22-.81l.86.1c.06-.22.09-.33.14-.55l-1.42-.16Z" style="fill:#807F7F"></path><path d="M125.36,181.69l.57.08c-.14.51-.21.77-.36,1.28L125,183Zm.72-2.56.57.07c-.14.52-.21.77-.36,1.29l-.57-.08C125.86,179.9,125.94,179.64,126.08,179.13Z" style="fill:#807F7F"></path><path d="M123.15,189.34l.59.09c-.15.51-.22.77-.37,1.27l-.59-.09Zm.74-2.54.59.08-.37,1.28-.59-.09Zm.74-2.55.58.08c-.15.51-.22.77-.36,1.28l-.59-.09Z" style="fill:#807F7F"></path><path d="M149.82,218.82l1.63.18c0-.23.06-.35.11-.58l-1-.1.17-.87-.65-.07C150,218,149.93,218.25,149.82,218.82Z" style="fill:#807F7F"></path><path d="M153.57,218.63l2,.2-.1.58-2-.2C153.5,219,153.52,218.86,153.57,218.63Zm4,.38,2,.17-.1.59-2-.17Z" style="fill:#807F7F"></path><path d="M161.63,219.34l2,.15c0,.24-.06.36-.09.59-.81-.05-1.22-.08-2-.15Zm4,.28,2,.13c0,.24-.05.36-.08.6l-2-.13C165.62,220,165.63,219.86,165.67,219.62Zm4,.24,2,.09c0,.25-.05.37-.08.61l-2-.1C169.67,220.22,169.68,220.1,169.71,219.86Z" style="fill:#807F7F"></path><path d="M173.69,220.65l1.65.06c.07-.61.1-.91.17-1.53l-.66,0-.1.92-1,0C173.74,220.28,173.72,220.4,173.69,220.65Z" style="fill:#807F7F"></path><path d="M175.27,215.39h.65c-.08.76-.12,1.14-.21,1.89h-.65C175.15,216.52,175.19,216.14,175.27,215.39Zm.41-3.79.64,0-.2,1.89h-.64Z" style="fill:#807F7F"></path><path d="M176.07,207.81h.63c-.07.76-.11,1.14-.19,1.9h-.63C176,209,176,208.57,176.07,207.81Zm.38-3.79h.63c-.08.76-.11,1.14-.19,1.9h-.63C176.34,205.16,176.38,204.78,176.45,204Zm.37-3.81h.62c-.07.76-.11,1.14-.18,1.9h-.62C176.71,201.35,176.75,201,176.82,200.21Z" style="fill:#807F7F"></path><path d="M177,198.3h.62c0-.62.08-.93.14-1.55l-1.53,0c0,.25,0,.37-.06.62h.92C177.06,197.75,177,197.93,177,198.3Z" style="fill:#807F7F"></path><path d="M168.69,196.77l1.89,0c0,.24-.05.36-.07.61l-1.89,0C168.65,197.13,168.66,197,168.69,196.77Zm3.77,0h1.89c0,.25,0,.37-.07.61h-1.89C172.42,197.16,172.43,197,172.46,196.8Z" style="fill:#807F7F"></path><path d="M157.4,196.43l1.88.08c0,.24-.05.36-.09.59l-1.88-.09Zm3.76.16,1.88.06c0,.24,0,.36-.08.6l-1.89-.07C161.11,196.94,161.13,196.82,161.16,196.59Zm3.76.11,1.89,0c0,.24-.05.36-.08.6l-1.89,0C164.88,197.06,164.89,196.94,164.92,196.7Z" style="fill:#807F7F"></path><path d="M153.75,197.7l.61,0,.15-.88.91,0,.1-.58-1.52-.09Z" style="fill:#807F7F"></path><path d="M152.79,203.09l.62,0c-.13.72-.19,1.08-.32,1.8l-.63-.05C152.59,204.17,152.66,203.81,152.79,203.09Zm.64-3.59.62,0c-.13.72-.19,1.08-.32,1.8l-.62,0C153.24,200.58,153.3,200.22,153.43,199.5Z" style="fill:#807F7F"></path><path d="M150.79,213.82l.64.07c-.14.71-.2,1.07-.34,1.78l-.64-.07C150.58,214.89,150.65,214.54,150.79,213.82Zm.68-3.56.63.05c-.13.72-.2,1.08-.33,1.79l-.64-.06C151.26,211.33,151.33,211,151.47,210.26Zm.66-3.58.63,0c-.13.72-.2,1.08-.33,1.79l-.63-.05C151.93,207.75,152,207.4,152.13,206.68Z" style="fill:#807F7F"></path><path d="M125.25,215.11c.64.12,1,.19,1.6.3.07-.21.1-.32.16-.54l-1-.17c.09-.33.14-.49.23-.81l-.64-.12C125.48,214.31,125.4,214.58,125.25,215.11Z" style="fill:#807F7F"></path><path d="M129,215.23l2,.35c-.05.21-.08.32-.14.54l-2-.35Zm4,.68,2,.32-.13.55-2-.32C132.88,216.24,132.91,216.13,133,215.91Z" style="fill:#807F7F"></path><path d="M137,216.54l2,.29c-.05.23-.07.34-.13.56-.8-.11-1.2-.17-2-.3C136.87,216.87,136.89,216.76,137,216.54Zm4,.58,2,.27-.12.57-2-.28C140.87,217.46,140.89,217.34,140.94,217.12Zm4,.53,2,.25-.12.57-2-.25C144.87,218,144.9,217.88,145,217.65Z" style="fill:#807F7F"></path><path d="M148.84,218.71l1.63.18c.11-.57.17-.86.28-1.44l-.65-.07-.17.87-1-.11Z" style="fill:#807F7F"></path><path d="M150.79,213.82l.64.07c-.14.71-.2,1.07-.34,1.78l-.64-.07C150.58,214.89,150.65,214.54,150.79,213.82Zm.68-3.56.63.05c-.13.72-.2,1.08-.33,1.79l-.64-.06C151.26,211.33,151.33,211,151.47,210.26Z" style="fill:#807F7F"></path><path d="M152.13,206.68l.63,0c-.13.72-.2,1.08-.33,1.79l-.63-.05C151.93,207.75,152,207.4,152.13,206.68Zm.66-3.59.62,0c-.13.72-.19,1.08-.32,1.8l-.63-.05C152.59,204.17,152.66,203.81,152.79,203.09Zm.64-3.59.62,0c-.13.72-.19,1.08-.32,1.8l-.62,0C153.24,200.58,153.3,200.22,153.43,199.5Z" style="fill:#807F7F"></path><path d="M153.75,197.7l.61,0,.25-1.46-1.52-.09-.1.58.91,0Z" style="fill:#807F7F"></path><path d="M145.6,195.62l1.87.16c-.05.23-.07.34-.11.57l-1.88-.16Zm3.74.31,1.88.13c-.05.23-.07.35-.11.58l-1.88-.14C149.28,196.27,149.3,196.16,149.34,195.93Z" style="fill:#807F7F"></path><path d="M134.39,194.44l1.86.23-.13.55-1.87-.23C134.31,194.77,134.34,194.66,134.39,194.44Zm3.73.44,1.87.2c-.05.23-.08.34-.13.56l-1.87-.2C138,195.21,138.07,195.1,138.12,194.88Zm3.73.39,1.87.18c0,.23-.07.34-.12.57l-1.87-.18C141.78,195.61,141.81,195.5,141.85,195.27Z" style="fill:#807F7F"></path><path d="M130.67,195.37l.6.08c.09-.33.13-.49.21-.82l.91.12c.05-.22.08-.33.14-.55-.6-.08-.91-.11-1.51-.2Z" style="fill:#807F7F"></path><path d="M129.32,200.42l.62.09-.45,1.68-.62-.1Zm.9-3.37.61.09-.45,1.69-.61-.09Z" style="fill:#807F7F"></path><path d="M126.57,210.45l.63.11c-.18.67-.27,1-.46,1.67l-.64-.12C126.29,211.45,126.38,211.11,126.57,210.45Zm.93-3.34.63.11c-.19.67-.28,1-.46,1.67l-.63-.11C127.22,208.11,127.31,207.78,127.5,207.11Zm.92-3.34.62.1c-.18.67-.28,1-.46,1.67l-.62-.1C128.14,204.77,128.23,204.44,128.42,203.77Z" style="fill:#807F7F"></path><path d="M101.07,209.59l1.58.42c.08-.2.11-.3.19-.5l-1-.25c.12-.3.17-.45.29-.74l-.63-.17Z" style="fill:#807F7F"></path><path d="M104.79,210l1.95.5-.18.5c-.78-.2-1.18-.29-2-.5C104.68,210.31,104.71,210.21,104.79,210Zm3.91,1,2,.47-.17.51-2-.47C108.59,211.29,108.62,211.19,108.7,211Z" style="fill:#807F7F"></path><path d="M112.62,211.91l2,.44-.17.52c-.79-.17-1.18-.26-2-.45C112.51,212.22,112.55,212.12,112.62,211.91Zm3.93.88,2,.42-.17.52-2-.42C116.45,213.1,116.48,213,116.55,212.79Zm3.94.82,2,.4-.15.53-2-.4C120.39,213.93,120.42,213.83,120.49,213.61Z" style="fill:#807F7F"></path><path d="M124.29,214.93l1.6.3c.15-.53.23-.8.38-1.34l-.64-.12c-.09.32-.14.48-.23.81l-1-.19Z" style="fill:#807F7F"></path><path d="M126.57,210.45l.63.11c-.18.67-.27,1-.46,1.67l-.64-.12C126.29,211.45,126.38,211.11,126.57,210.45Zm.93-3.34.63.11c-.19.67-.28,1-.46,1.67l-.63-.11C127.22,208.11,127.31,207.78,127.5,207.11Z" style="fill:#807F7F"></path><path d="M128.42,203.77l.62.1c-.18.67-.28,1-.46,1.68l-.62-.11C128.14,204.77,128.23,204.44,128.42,203.77Zm.9-3.35.62.09-.45,1.68-.62-.1Zm.9-3.37.61.09-.45,1.69-.61-.09Z" style="fill:#807F7F"></path><path d="M130.67,195.37l.6.08.35-1.37-1.5-.2c-.06.22-.09.33-.14.54l.9.13C130.79,194.88,130.75,195,130.67,195.37Z" style="fill:#807F7F"></path><path d="M122.7,192.76l1.85.3-.15.53c-.75-.11-1.12-.17-1.86-.3Zm3.71.58,1.85.28-.15.54-1.86-.28C126.31,193.67,126.34,193.56,126.41,193.34Z" style="fill:#807F7F"></path><path d="M111.62,190.75l1.84.36-.17.52-1.85-.37C111.51,191.06,111.55,191,111.62,190.75Zm3.68.72,1.85.34-.17.52-1.85-.34C115.2,191.78,115.24,191.67,115.3,191.47Zm3.7.67,1.84.32-.15.52-1.86-.32Z" style="fill:#807F7F"></path><path d="M107.84,191.33l.6.13.27-.76.89.19c.07-.21.11-.31.18-.51l-1.49-.31Z" style="fill:#807F7F"></path><path d="M106.16,196l.6.14c-.22.62-.34.93-.56,1.56l-.61-.15Zm1.12-3.11.6.13c-.22.63-.33.94-.56,1.56l-.6-.13C107,193.82,107.06,193.51,107.28,192.89Z" style="fill:#807F7F"></path><path d="M102.71,205.28l.63.16-.58,1.54-.63-.17C102.37,206.2,102.48,205.89,102.71,205.28Zm1.16-3.08.62.15-.58,1.54-.62-.15C103.53,203.12,103.64,202.81,103.87,202.2Zm1.15-3.1.61.15-.57,1.55-.61-.15Z" style="fill:#807F7F"></path><polygon points="87.23 214.72 94.17 218.44 96.36 208.71 88.16 206.42 87.23 214.72" style="fill:#ffc3bd"></polygon><path d="M95,166.78s-9.87-.86-12.16,12-9.44,27.33,0,35.06l5.44,3.29a23.75,23.75,0,0,0,5.15-10.45l-3.08-2.14,2.36-8.88S99,169.78,95,166.78Z" style="fill:#807F7F"></path><path d="M95,166.78s-9.87-.86-12.16,12-9.44,27.33,0,35.06l5.44,3.29a23.75,23.75,0,0,0,5.15-10.45l-3.08-2.14,2.36-8.88S99,169.78,95,166.78Z" style="fill:#fff;opacity:0.5"></path><path d="M103,384.15,98,399.56a2,2,0,0,0,.79,2.21,54.59,54.59,0,0,0,5.22,3.11,67.76,67.76,0,0,0,7.18,2.19,1.93,1.93,0,0,1,1.44,1.87h0a1.94,1.94,0,0,1-1.94,1.94H86.11a2,2,0,0,1-1.92-2.24l4.23-26.49a1.94,1.94,0,0,1,2.11-1.62l10.78,1.1A1.94,1.94,0,0,1,103,384.15Z" style="fill:#263238"></path><path d="M93.28,235.57l27.1,1s2,70,.1,89.86c-1.69,17.81-13.14,47.39-15.36,56.64a1.87,1.87,0,0,1-2.07,1.41L89,382.63a1.87,1.87,0,0,1-1.62-2.1c1-7.4,3.65-23.21,10.09-49.37a62.85,62.85,0,0,0,1.8-13.65c.2-9.85.28-27.69-1.26-40.83C96.66,265.25,91.8,253.4,93.28,235.57Z" style="fill:#807F7F"></path><path d="M103,384.15,98,399.56a2,2,0,0,0,.79,2.21,54.59,54.59,0,0,0,5.22,3.11,67.76,67.76,0,0,0,7.18,2.19,1.93,1.93,0,0,1,1.44,1.87h0a1.94,1.94,0,0,1-1.94,1.94H86.11a2,2,0,0,1-1.92-2.24l4.23-26.49a1.94,1.94,0,0,1,2.11-1.62l10.78,1.1A1.94,1.94,0,0,1,103,384.15Z" style="fill:#263238"></path><path d="M93.28,235.57l27.1,1s2,70,.1,89.86c-1.69,17.81-13.14,47.39-15.36,56.64a1.87,1.87,0,0,1-2.07,1.41L89,382.63a1.87,1.87,0,0,1-1.62-2.1c1-7.4,3.65-23.21,10.09-49.37a62.85,62.85,0,0,0,1.8-13.65c.2-9.85.28-27.69-1.26-40.83C96.66,265.25,91.8,253.4,93.28,235.57Z" style="fill:#807F7F"></path><path d="M93.28,235.57l27.1,1s2,70,.1,89.86c-1.69,17.81-13.14,47.39-15.36,56.64a1.87,1.87,0,0,1-2.07,1.41L89,382.63a1.87,1.87,0,0,1-1.62-2.1c1-7.4,3.65-23.21,10.09-49.37a62.85,62.85,0,0,0,1.8-13.65c.2-9.85.28-27.69-1.26-40.83C96.66,265.25,91.8,253.4,93.28,235.57Z" style="opacity:0.2"></path><path d="M112.5,252.64a251.7,251.7,0,0,0,8.9,59.86c.35-11.9-.44-42.61-.61-54.66l-3.42-5.2Z" style="opacity:0.2"></path><path d="M148.16,382.9l-1.27,16.88a1.91,1.91,0,0,0,.91,1.79A67.51,67.51,0,0,0,154,405a76.45,76.45,0,0,0,7.6,2.14A1.91,1.91,0,0,1,163,409h0a1.92,1.92,0,0,1-1.92,1.92h-25a1.92,1.92,0,0,1-1.92-1.86l-.75-25.65a1.93,1.93,0,0,1,1.82-2l10.93-.55A1.92,1.92,0,0,1,148.16,382.9Z" style="fill:#263238"></path><path d="M136.57,237.71s14.24,73.41,15.59,88.67c1.23,13.84-1.79,45.93-2.25,56.14a1.7,1.7,0,0,1-1.71,1.63H133.76a1.7,1.7,0,0,1-1.71-1.66c-.18-7.63-.49-26,.22-44.64a61.58,61.58,0,0,0-3-21.26c-5.1-15.9-14.37-45.87-17.65-63.71-.7-3.82-1.91-15.43-1.91-15.43Z" style="fill:#807F7F"></path><path d="M136.57,237.71s14.24,73.41,15.59,88.67c1.23,13.84-1.79,45.93-2.25,56.14a1.7,1.7,0,0,1-1.71,1.63H133.76a1.7,1.7,0,0,1-1.71-1.66c-.18-7.63-.49-26,.22-44.64a61.58,61.58,0,0,0-3-21.26c-5.1-15.9-14.37-45.87-17.65-63.71-.7-3.82-1.91-15.43-1.91-15.43Z" style="opacity:0.2"></path><path d="M104.18,164.26s5.4-.54,5.34-10.48c0,0,5-2.27,8.23.68s-3,9.79,1.06,12.69S104.18,164.26,104.18,164.26Z" style="fill:#ffc3bd"></path><path d="M114.75,158.47a18.56,18.56,0,0,0,2.94,3.55c.29-1.28.71-2.62.92-3.85Z" style="opacity:0.1"></path><polygon points="165 198.61 181.75 196.75 184.9 191.74 188.9 189.32 192.05 190.87 189.9 201.61 186.47 202.94 182.46 202.94 165 207.62 165 198.61" style="fill:#ffc3bd"></polygon><path d="M137,168.84s8.31-.57,16,12.59l7.44,14.89h5.73s3.15,8.3,0,13.16c0,0-11.16,4.3-29.2-18l-3.72-14.6Z" style="fill:#807F7F"></path><path d="M137,168.84s8.31-.57,16,12.59l7.44,14.89h5.73s3.15,8.3,0,13.16c0,0-11.16,4.3-29.2-18l-3.72-14.6Z" style="fill:#fff;opacity:0.5"></path><path d="M92.21,241.19s29.77,5,46.18,0c0,0-3.82-16,1.9-43.5,0,0-5.72-14.5,0-29,0,0-22.89-6.87-46.94-2.68a186.11,186.11,0,0,0-2.67,25.57C90.25,204,89.92,211.81,92.21,241.19Z" style="fill:#807F7F"></path><path d="M102.61,166.78s-1.15-6.59,10-5.44,13.16,6.87,13.16,6.87Z" style="fill:#807F7F"></path><path d="M91.12,225.84a310.33,310.33,0,0,0,33.48,1.78c4,0,8.2-.08,12.55-.26,0-1.42,0-3,0-4.57a310.31,310.31,0,0,1-46.34-1.58C90.94,222.67,91,224.21,91.12,225.84Z" style="fill:#263238"></path><path d="M123.83,208.94c-.16-11,.77-34.67,6.81-40.92a4,4,0,0,1,1.82-1.16c-1.76-.34-3.77-.68-6-1-3.44,4.46-5.69,13.22-6.69,26.07-.54,7-.57,13.46-.54,16.83a223.47,223.47,0,0,1-22.45-2.19c.1-5.69.49-22.11,1.64-30.15A54.11,54.11,0,0,1,101,165c-1.66.14-3.34.33-5,.57a71.23,71.23,0,0,0-2.11,10.19c-1.15,8.09-1.55,23.76-1.67,30.05l-1.86-.33c0,1.47,0,3,.06,4.69a223.45,223.45,0,0,0,39.35,3.42c2.6,0,5.3-.05,8.05-.15.15-1.48.33-3,.54-4.6C133.29,209.07,128.42,209.07,123.83,208.94Z" style="fill:#263238"></path><path d="M91.12,225.84a310.33,310.33,0,0,0,33.48,1.78c4,0,8.2-.08,12.55-.26,0-1.42,0-3,0-4.57a310.31,310.31,0,0,1-46.34-1.58C90.94,222.67,91,224.21,91.12,225.84Z" style="fill:#fff;opacity:0.8"></path><path d="M123.83,208.94c-.16-11,.77-34.67,6.81-40.92a4,4,0,0,1,1.82-1.16c-1.76-.34-3.77-.68-6-1-3.44,4.46-5.69,13.22-6.69,26.07-.54,7-.57,13.46-.54,16.83a223.47,223.47,0,0,1-22.45-2.19c.1-5.69.49-22.11,1.64-30.15A54.11,54.11,0,0,1,101,165c-1.66.14-3.34.33-5,.57a71.23,71.23,0,0,0-2.11,10.19c-1.15,8.09-1.55,23.76-1.67,30.05l-1.86-.33c0,1.47,0,3,.06,4.69a223.45,223.45,0,0,0,39.35,3.42c2.6,0,5.3-.05,8.05-.15.15-1.48.33-3,.54-4.6C133.29,209.07,128.42,209.07,123.83,208.94Z" style="fill:#fff;opacity:0.8"></path><polygon points="99.47 190.41 116.63 191.96 116.63 202.84 99.47 201.12 99.47 190.41" style="fill:#fff"></polygon><path d="M129.52,142.29c.06.63-.22,1.18-.64,1.21s-.82-.46-.86-1.08.22-1.17.64-1.2S129.46,141.66,129.52,142.29Z" style="fill:#263238"></path><path d="M127.74,143.07l2.83,5.09a4.36,4.36,0,0,1-3.92.15Z" style="fill:#ba4d3c"></path><path d="M104.85,140c.38,8.42.36,12,4.54,16.38,6.42,4.5,16.56,4.29,18.7-4.08,1.93-7.53,1-20-7.2-23.53a11.51,11.51,0,0,0-16,11.23Z" style="fill:#ffc3bd"></path><path d="M126.2,139.34a.4.4,0,0,0,.32,0,2.6,2.6,0,0,1,2.38,0,.33.33,0,0,0,.45-.1.34.34,0,0,0-.1-.46,3.25,3.25,0,0,0-3-.09.33.33,0,0,0-.17.44h0A.44.44,0,0,0,126.2,139.34Z" style="fill:#263238"></path><path d="M123,145.5s1.43-6.2,0-7.92-.62-2.11.92-3.62,2.8-4.6-.35-6.16-9.35-2.52-14.41.43-5.34,6.83-5.43,9.71,1,12.72,2,15a7.86,7.86,0,0,0,3.66,3.41s1.15-1.27,4.35,0C113.74,156.35,121.66,149.22,123,145.5Z" style="fill:#263238"></path><path d="M122.32,142.35a6.52,6.52,0,0,1,1.27,4.81c-.33,2.26-2.58,2.49-4.24,1.11-1.51-1.25-3.13-3.93-2-5.84A2.93,2.93,0,0,1,122.32,142.35Z" style="fill:#ffc3bd"></path><path d="M102.11,136.71a17.77,17.77,0,0,0,1.56,7.26c6.21-.78,11.06-3.65,12.29-7.26Z" style="fill:#263238"></path><path d="M102.11,136.71a17.77,17.77,0,0,0,1.56,7.26c6.21-.78,11.06-3.65,12.29-7.26Z" style="fill:#fff;opacity:0.6000000000000001"></path><path d="M137.17,135.46h-6.11c-.44-7.73-4.91-13.8-12.8-13.8s-16.34,6.07-17.18,13.8H99.62a1.25,1.25,0,0,0,0,2.49h37.55A1.25,1.25,0,0,0,137.17,135.46Z" style="fill:#807F7F"></path><path d="M101.09,135.46h30a19.24,19.24,0,0,0-.79-4.52H102.51A12.63,12.63,0,0,0,101.09,135.46Z" style="opacity:0.1"></path></g></svg>