<svg viewBox="0 -16 453.99076 453" xmlns="http://www.w3.org/2000/svg"><path d="m71.023438 106.066406h.484374c18.21875-.019531 32.980469-14.78125 33-33v-10.988281c-.019531-18.214844-14.78125-32.976563-33-33h-.484374c-18.21875.023437-32.980469 14.785156-33 33v10.984375c.015624 18.21875 14.78125 32.984375 33 33.003906zm-19-43.984375c.011718-10.488281 8.507812-18.988281 19-19h.484374c10.488282.011719 18.988282 8.511719 19 19v10.984375c-.011718 10.488282-8.511718 18.988282-19 19h-.484374c-10.492188-.011718-18.988282-8.511718-19-19zm0 0"/><path d="m110.097656 116.597656h-13.8125c-1.78125.003906-3.492187.683594-4.789062 1.902344l-19.226563 18.039062-18.453125-17.960937c-1.308594-1.269531-3.058594-1.980469-4.882812-1.980469h-14.664063c-9.625 0-18.804687 4.046875-25.296875 11.148438-6.492187 7.105468-9.699218 16.613281-8.832031 26.199218v80.335938c0 11.855469 9.609375 21.464844 21.464844 21.472656h.253906c2.875-.03125 5.714844-.65625 8.339844-1.835937l3.6875 145.273437c.316406 8.9375 5.855469 16.855469 14.144531 20.214844 8.289062 3.355469 17.777344 1.53125 24.226562-4.667969 6.457032 6.207031 15.964844 8.03125 24.261719 4.652344s13.824219-11.324219 14.113281-20.273437l3.683594-145.082032c6.636719 2.832032 14.25 2.140625 20.269532-1.835937 6.019531-3.980469 9.644531-10.710938 9.644531-17.929688v-80.320312c.863281-9.585938-2.339844-19.09375-8.832031-26.199219-6.496094-7.105469-15.675782-11.152344-25.300782-11.152344zm-22.148437 290.464844c-4.800781-.003906-8.691407-3.894531-8.695313-8.691406v-145.523438h-14v145.523438c-.003906 4.722656-3.777344 8.578125-8.5 8.683594-4.722656.105468-8.664062-3.578126-8.878906-8.296876l-4.167969-164.1875h57.101563l-4.171875 164.109376c-.152344 4.683593-4.003907 8.398437-8.6875 8.382812zm42.3125-254.15625c-.023438.234375-.035157.472656-.035157.707031v80.65625c-.046874 4.101563-3.386718 7.40625-7.492187 7.40625-4.101563 0-7.441406-3.304687-7.488281-7.40625v-17.097656l.082031-3.25h-.082031v-33.640625h-14v36.726562l-.089844 3.5625h-57.800781l-.175781-7h-.085938v-33.285156h-14v53.59375c.09375 4.203125-3.191406 7.703125-7.390625 7.878906-1.996094.023438-3.917969-.753906-5.339844-2.15625-1.417969-1.40625-2.21875-3.316406-2.21875-5.316406v-80.667968c0-.238282-.011719-.472657-.035156-.707032-.578125-5.703125 1.285156-11.382812 5.128906-15.632812s9.304688-6.675782 15.035157-6.675782h11.820312l21.203125 20.632813c.03125.03125.066406.050781.101563.082031.210937.199219.429687.382813.664062.554688.015625.011718.03125.027344.050781.039062.253907.179688.519531.34375.792969.488282.054688.027343.109375.054687.167969.082031.253906.128906.515625.238281.78125.335937.023437.007813.046875.019532.074219.027344.285156.09375.574218.171875.871093.230469.070313.011719.140625.023437.207031.035156.261719.046875.527344.074219.792969.089844.039063 0 .078125.007812.121094.011719.296875.007812.59375 0 .890625-.027344.070312-.007813.140625-.015625.210938-.023438.292968-.035156.585937-.085937.871093-.15625l.03125-.007812c.308594-.082032.613281-.183594.910157-.308594.023437-.007812.046874-.011719.070312-.023438.027344-.007812.050781-.027343.074219-.035156.574219-.253906 1.113281-.578125 1.601562-.972656.0625-.054688.125-.105469.1875-.160156.0625-.054688.140625-.113282.207031-.175782l22.082032-20.71875h11.046875c5.726562 0 11.1875 2.425782 15.03125 6.675782 3.839843 4.25 5.703125 9.929687 5.125 15.628906zm0 0"/><path d="m380.652344 106.066406h.488281c18.214844-.019531 32.976563-14.78125 33-33v-10.988281c-.023437-18.214844-14.785156-32.976563-33-33h-.488281c-18.21875.023437-32.980469 14.785156-33 33v10.984375c.019531 18.21875 14.78125 32.984375 33 33.003906zm-19-43.984375c.011718-10.488281 8.511718-18.988281 19-19h.488281c10.488281.011719 18.988281 8.511719 19 19v10.984375c-.011719 10.488282-8.511719 18.988282-19 19h-.488281c-10.488282-.011718-18.988282-8.511718-19-19zm0 0"/><path d="m419.730469 116.597656h-13.816407c-1.78125.003906-3.492187.683594-4.789062 1.902344l-19.226562 18.035156-18.453126-17.957031c-1.308593-1.269531-3.058593-1.980469-4.882812-1.980469h-14.664062c-9.625 0-18.804688 4.046875-25.300782 11.148438-6.492187 7.105468-9.695312 16.613281-8.832031 26.199218v80.335938c.003906 11.855469 9.613281 21.464844 21.46875 21.472656h.25c2.875-.035156 5.714844-.660156 8.335937-1.835937l3.6875 145.269531c.316407 8.9375 5.855469 16.855469 14.144532 20.214844 8.289062 3.359375 17.777344 1.53125 24.226562-4.664063 6.460938 6.207031 15.964844 8.027344 24.261719 4.648438 8.296875-3.375 13.828125-11.320313 14.113281-20.273438l3.683594-145.078125c6.636719 2.828125 14.25 2.136719 20.269531-1.839844 6.019531-3.980468 9.644531-10.710937 9.644531-17.925781v-80.320312c.867188-9.585938-2.339843-19.09375-8.828124-26.195313-6.492188-7.105468-15.671876-11.152344-25.292969-11.15625zm-22.152344 290.464844c-4.800781-.003906-8.691406-3.894531-8.695313-8.691406v-145.523438h-14v145.523438c.011719 4.730468-3.765624 8.601562-8.496093 8.707031s-8.675781-3.59375-8.878907-8.320313l-4.171874-164.1875h57.101562l-4.171875 164.109376c-.152344 4.683593-4 8.398437-8.6875 8.382812zm42.3125-254.15625c-.023437.234375-.035156.472656-.035156.707031v80.65625c0 4.136719-3.351563 7.488281-7.488281 7.488281-4.136719 0-7.488282-3.351562-7.488282-7.488281v-17.097656l.082032-3.25h-.082032v-33.640625h-14v36.722656l-.089844 3.5625h-57.808593l-.175781-7h-.085938v-33.285156h-14v53.597656c.09375 4.203125-3.191406 7.703125-7.390625 7.878906-1.996094.023438-3.917969-.753906-5.335937-2.15625-1.421876-1.40625-2.222657-3.320312-2.222657-5.316406v-80.667968c0-.238282-.011719-.472657-.035156-.707032-.578125-5.703125 1.285156-11.382812 5.128906-15.632812 3.839844-4.25 9.304688-6.675782 15.035157-6.675782h11.816406l21.214844 20.632813c.027343.027344.066406.050781.097656.078125.210937.203125.433594.386719.667968.558594.015626.011718.03125.027344.046876.039062.257812.179688.523437.34375.800781.488282.054687.027343.109375.054687.164062.082031.253907.128906.519531.238281.789063.335937l.066406.023438c.285156.097656.578125.175781.875.234375.066406.011719.136719.023437.207031.035156.261719.042969.527344.074219.792969.089844.039062 0 .078125.007812.121094.011719.296875.007812.59375 0 .886718-.03125.074219-.003907.144532-.011719.214844-.023438.292969-.03125.582032-.085938.867188-.15625.011718 0 .023437 0 .03125-.003906.3125-.082032.613281-.183594.910156-.308594.023438-.007812.050781-.011719.074219-.023438.023437-.007812.046875-.027343.070312-.039062.574219-.25 1.113281-.574219 1.601563-.96875.0625-.054688.125-.101562.1875-.160156s.140625-.113282.207031-.175782l22.082031-20.71875h11.046875c5.730469 0 11.191407 2.425782 15.03125 6.675782 3.84375 4.25 5.703125 9.929687 5.125 15.628906zm0 0"/><path d="m225.835938 106.066406h.488281c18.214843-.019531 32.980469-14.78125 33-33v-10.988281c-.019531-18.214844-14.785157-32.976563-33-33h-.488281c-18.214844.023437-32.976563 14.785156-33 33v10.984375c.019531 18.21875 14.78125 32.984375 33 33.003906zm-19-43.984375c.011718-10.488281 8.511718-18.988281 19-19h.488281c10.488281.011719 18.988281 8.511719 19 19v10.984375c-.011719 10.488282-8.511719 18.988282-19 19h-.488281c-10.488282-.011718-18.988282-8.511718-19-19v-10.988281zm0 0"/><path d="m264.917969 116.597656h-13.820313c-1.78125.003906-3.492187.683594-4.789062 1.902344l-19.226563 18.039062-18.453125-17.960937c-1.304687-1.269531-3.058594-1.980469-4.878906-1.980469h-14.664062c-9.625 0-18.804688 4.046875-25.296876 11.148438-6.496093 7.105468-9.699218 16.613281-8.835937 26.199218v80.335938c.003906 11.855469 9.613281 21.464844 21.46875 21.472656h.25c2.875-.035156 5.714844-.660156 8.335937-1.835937l3.691407 145.269531c.3125 8.941406 5.855469 16.859375 14.144531 20.214844 8.289062 3.359375 17.777344 1.53125 24.226562-4.664063 6.457032 6.207031 15.964844 8.027344 24.261719 4.652344 8.292969-3.378906 13.824219-11.324219 14.113281-20.277344l3.679688-145.078125c6.640625 2.828125 14.253906 2.136719 20.273438-1.839844 6.019531-3.976562 9.640624-10.710937 9.640624-17.925781v-80.320312c.867188-9.585938-2.335937-19.09375-8.828124-26.199219-6.492188-7.101562-15.671876-11.148438-25.292969-11.152344zm-22.15625 290.464844c-4.796875-.003906-8.6875-3.894531-8.691407-8.691406v-145.523438h-14v145.523438c-.003906 4.722656-3.777343 8.578125-8.5 8.683594-4.722656.105468-8.664062-3.578126-8.878906-8.296876l-4.167968-164.1875h57.097656l-4.171875 164.109376c-.148438 4.683593-4 8.398437-8.6875 8.382812zm42.316406-254.15625c-.027344.234375-.039063.472656-.039063.707031v80.65625c0 4.136719-3.351562 7.488281-7.488281 7.488281s-7.488281-3.351562-7.488281-7.488281v-17.097656l.082031-3.25h-.082031v-33.640625h-14v36.722656l-.089844 3.5625h-57.804687l-.179688-7h-.082031v-33.285156h-14v53.597656c.09375 4.203125-3.195312 7.703125-7.390625 7.878906-1.996094.023438-3.921875-.753906-5.339844-2.15625-1.421875-1.40625-2.21875-3.320312-2.222656-5.316406v-80.667968c0-.238282-.011719-.472657-.035156-.707032-.578125-5.703125 1.289062-11.382812 5.128906-15.632812 3.84375-4.253906 9.308594-6.679688 15.039063-6.675782h11.820312l21.210938 20.632813c.03125.027344.066406.050781.101562.078125.207031.199219.429688.386719.664062.558594.015626.011718.03125.027344.050782.039062.253906.179688.519531.34375.792968.484375.054688.03125.109376.058594.167969.085938.253907.128906.515625.238281.78125.332031.023438.011719.046875.023438.074219.03125.285156.09375.574219.171875.871094.230469.070312.011719.136718.023437.207031.035156.261719.046875.527344.074219.792969.089844.039062 0 .082031.007812.121094.011719.296874.007812.59375 0 .890624-.03125.070313-.003907.140626-.011719.210938-.023438.296875-.03125.585938-.085938.871094-.15625l.03125-.003906c.308594-.082032.613281-.183594.910156-.308594.023438-.007812.046875-.011719.070312-.023438.023438-.007812.050782-.027343.074219-.039062.574219-.25 1.113281-.574219 1.601563-.96875.0625-.054688.125-.101562.1875-.160156s.140625-.113282.203125-.175782l22.082031-20.71875h11.046875c5.730469 0 11.191406 2.425782 15.035156 6.675782 3.839844 4.25 5.703125 9.929687 5.121094 15.628906zm0 0"/><path d="m182.832031 44.480469v-10.984375c-.019531-18.21875-14.78125-32.980469-33-33h-.484375c-18.21875.019531-32.980468 14.78125-33 33v10.984375c.019532 18.214843 14.78125 32.976562 33 33h.484375c18.21875-.019531 32.980469-14.785157 33-33zm-14 0c-.011719 10.488281-8.507812 18.988281-19 19h-.484375c-10.488281-.011719-18.988281-8.511719-19-19v-10.984375c.011719-10.488282 8.511719-18.988282 19-19h.484375c10.492188.011718 18.988281 8.511718 19 19zm0 0"/><path d="m337.648438 44.480469v-10.984375c-.019532-18.21875-14.78125-32.980469-33-33h-.488282c-18.214844.019531-32.976562 14.78125-33 33v10.984375c.023438 18.214843 14.785156 32.976562 33 33h.488282c18.21875-.019531 32.980468-14.785157 33-33zm-14 0c-.011719 10.488281-8.511719 18.988281-19 19h-.488282c-10.488281-.011719-18.988281-8.511719-19-19v-10.984375c.011719-10.488282 8.511719-18.988282 19-19h.488282c10.488281.011718 18.988281 8.511718 19 19zm0 0"/></svg>
