<?xml version="1.0" encoding="iso-8859-1"?>
<!-- Generator: Adobe Illustrator 19.0.0, SVG Export Plug-In . SVG Version: 6.00 Build 0)  -->
<svg version="1.1" id="Capa_1" xmlns="http://www.w3.org/2000/svg" xmlns:xlink="http://www.w3.org/1999/xlink" x="0px" y="0px"
	 viewBox="0 0 512.006 512.006" style="enable-background:new 0 0 512.006 512.006;" xml:space="preserve">
<g>
	<g>
		<path d="M507.082,244.168l-48.763-48.763C342.838,80.53,169.122,80.535,54.287,195.371L4.991,244.106
			C1.809,247.255,0.011,251.54,0,256.01c-0.011,4.476,1.759,8.767,4.918,11.932l48.769,48.769
			c57.67,57.367,129.972,86.048,202.302,86.048c72.324,0,144.671-28.698,202.358-86.088l48.735-48.735
			c3.154-3.148,4.924-7.422,4.924-11.881C512.006,251.596,510.236,247.322,507.082,244.168z M434.606,292.875
			c-101.812,101.302-255.389,101.291-357.184,0.034l-36.781-36.787l37.341-36.916c101.38-101.38,254.706-101.375,356.596,0
			l36.848,36.848L434.606,292.875z"/>
	</g>
</g>
<g>
	<g>
		<path d="M256,155.789c-55.289,0-100.271,44.982-100.271,100.271c0,55.289,44.982,100.271,100.271,100.271
			s100.271-44.982,100.271-100.271C356.271,200.771,311.289,155.789,256,155.789z M256,322.721
			c-36.759,0-66.661-29.902-66.661-66.661S219.241,189.4,256,189.4s66.655,29.908,66.655,66.661
			C322.655,292.814,292.759,322.721,256,322.721z"/>
	</g>
</g>
<g>
	<g>
		<path d="M256,210.126v33.611c6.913,0,12.324,5.417,12.324,12.324c0,6.907-5.411,12.324-12.324,12.324
			c-6.913,0-12.324-5.417-12.324-12.324h-33.611c0,25.326,20.609,45.934,45.934,45.934c25.331,0,45.934-20.603,45.934-45.934
			S281.326,210.126,256,210.126z"/>
	</g>
</g>
<g>
</g>
<g>
</g>
<g>
</g>
<g>
</g>
<g>
</g>
<g>
</g>
<g>
</g>
<g>
</g>
<g>
</g>
<g>
</g>
<g>
</g>
<g>
</g>
<g>
</g>
<g>
</g>
<g>
</g>
</svg>
