<svg viewBox="0 0 496 496" xmlns="http://www.w3.org/2000/svg"><path d="m496 0h-496v432h240v64h192v-64h64zm-16 16v48h-464v-48zm-128 408v56h-32v-56zm64 56h-48v-56h16v-16h-96v16h16v56h-48v-136h-.089844l80.089844-69.414062 80.089844 69.414062h-.089844zm8-150.320312-16-13.863282v-19.816406h16zm8 86.320312v-58.207031l18.761719 16.253906 10.484375-12.09375-21.246094-18.410156v-63.542969h-48v21.945312l-56-48.53125-125.238281 108.539063 10.484375 12.09375 18.753906-16.253906v58.207031h-224v-336h464v336zm0 0"/><path d="m144 144c-35.289062 0-64 28.710938-64 64s28.710938 64 64 64 64-28.710938 64-64-28.710938-64-64-64zm0 112c-26.472656 0-48-21.527344-48-48s21.527344-48 48-48 48 21.527344 48 48-21.527344 48-48 48zm0 0"/><path d="m229.070312 163.671875 9.464844-19.527344-30.671875-30.671875-19.519531 9.457032c-4.960938-2.585938-10.160156-4.730469-15.519531-6.417969l-7.128907-20.511719h-43.390624l-7.121094 20.511719c-5.367188 1.679687-10.558594 3.832031-15.519532 6.417969l-19.519531-9.457032-30.671875 30.671875 9.464844 19.527344c-2.578125 4.953125-4.730469 10.144531-6.425781 15.511719l-20.511719 7.128906v43.382812l20.503906 7.128907c1.695313 5.367187 3.839844 10.558593 6.425782 15.511719l-9.464844 19.527343 30.671875 30.671875 19.519531-9.464844c4.960938 2.578126 10.160156 4.730469 15.519531 6.425782l7.136719 20.503906h43.375l7.128906-20.503906c5.367188-1.695313 10.558594-3.839844 15.519532-6.425782l19.519531 9.464844 30.671875-30.671875-9.464844-19.527343c2.578125-4.953126 4.730469-10.144532 6.425781-15.511719l20.511719-7.136719v-43.382812l-20.503906-7.128907c-1.695313-5.359375-3.847656-10.550781-6.425782-15.503906zm10.929688 54.640625-17.671875 6.144531-1.097656 4.101563c-1.832031 6.882812-4.550781 13.457031-8.085938 19.53125l-2.136719 3.671875 8.160157 16.832031-14.574219 14.574219-16.832031-8.160157-3.683594 2.136719c-6.078125 3.527344-12.644531 6.246094-19.535156 8.085938l-4.101563 1.089843-6.128906 17.679688h-20.625l-6.136719-17.679688-4.101562-1.089843c-6.890625-1.832031-13.464844-4.550781-19.539063-8.085938l-3.679687-2.136719-16.832031 8.160157-14.574219-14.574219 8.160156-16.832031-2.136719-3.671875c-3.527344-6.074219-6.246094-12.648438-8.085937-19.53125l-1.097657-4.101563-17.664062-6.144531v-20.617188l17.671875-6.144531 1.097656-4.101562c1.832031-6.882813 4.550781-13.457031 8.085938-19.527344l2.136719-3.675781-8.160157-16.832032 14.574219-14.574218 16.832031 8.160156 3.671875-2.136719c6.082032-3.527343 12.648438-6.246093 19.53125-8.070312l4.109375-1.089844 6.144531-17.703125h20.609376l6.144531 17.679688 4.109375 1.089843c6.882812 1.832031 13.457031 4.542969 19.53125 8.070313l3.671875 2.136718 16.832031-8.160156 14.574219 14.574219-8.160157 16.832031 2.136719 3.671875c3.527344 6.074219 6.246094 12.648438 8.085938 19.53125l1.097656 4.101563 17.671875 6.160156zm0 0"/><path d="m144 176c-17.648438 0-32 14.351562-32 32s14.351562 32 32 32v-16c-8.824219 0-16-7.175781-16-16s7.175781-16 16-16 16 7.175781 16 16h16c0-17.648438-14.351562-32-32-32zm0 0"/><path d="m304 392h64v-64h-64zm16-48h32v32h-32zm0 0"/><path d="m272 96h192v16h-192zm0 0"/><path d="m272 128h16v16h-16zm0 0"/><path d="m304 128h160v16h-160zm0 0"/><path d="m272 160h192v16h-192zm0 0"/><path d="m272 192h192v16h-192zm0 0"/><path d="m448 224h16v16h-16zm0 0"/><path d="m272 224h160v16h-160zm0 0"/><path d="m32 32h16v16h-16zm0 0"/><path d="m64 32h16v16h-16zm0 0"/><path d="m96 32h16v16h-16zm0 0"/></svg>
